<svg width="2000" height="1050" viewBox="0 0 2000 1050" fill="none" xmlns="http://www.w3.org/2000/svg">
<g clip-path="url(#clip0_6613_55773)">
<path d="M2164.12 630.4C412.123 1504 -435.316 362.531 748.123 491.2C1358.08 557.517 2092.6 975.443 1411.93 254.8" stroke="#0349D8" stroke-opacity="0.4" stroke-width="24"/>
<rect x="1169.11" y="109.24" width="285.042" height="131.367" rx="65.6836" fill="#034AD8"/>
<path d="M1249.11 192.207C1257.72 192.207 1262.94 186.987 1262.94 180.985C1262.94 168.197 1244.68 171.068 1244.68 164.805C1244.68 162.717 1246.24 161.151 1250.16 161.151C1254.33 161.151 1256.94 164.283 1256.94 164.283L1262.16 159.063C1262.16 159.063 1257.99 154.105 1249.9 154.105C1241.54 154.105 1236.59 159.063 1236.59 164.805C1236.59 177.592 1254.85 174.722 1254.85 180.985C1254.85 183.334 1253.03 185.161 1248.85 185.161C1243.37 185.161 1240.24 181.246 1240.24 181.246L1235.02 186.465C1235.02 186.465 1239.72 192.207 1249.11 192.207ZM1274.42 191.946C1279.38 191.946 1281.99 188.292 1281.99 188.292H1282.25V191.424C1283.82 191.424 1289.3 191.424 1289.3 191.424V175.505C1289.3 169.763 1284.86 165.327 1278.34 165.327C1271.55 165.327 1267.9 170.285 1267.9 170.285L1272.08 174.461C1272.08 174.461 1274.16 171.59 1277.82 171.59C1280.43 171.59 1281.99 173.156 1282.25 174.983L1274.16 176.444C1269.47 177.279 1266.6 180.463 1266.6 184.639C1266.6 188.814 1269.73 191.946 1274.42 191.946ZM1276.77 186.204C1274.69 186.204 1273.64 185.161 1273.64 183.595C1273.64 182.29 1274.69 181.298 1276.51 180.985L1282.25 179.941V180.463C1282.25 183.856 1279.9 186.204 1276.77 186.204ZM1301.58 191.424H1309.41L1319.06 165.849H1311.5L1305.6 183.073H1305.39L1299.49 165.849H1291.92L1301.58 191.424ZM1334.19 191.946C1341.23 191.946 1345.15 187.77 1345.15 187.77L1341.5 182.812C1341.5 182.812 1339.15 185.682 1334.71 185.682C1330.8 185.682 1328.71 183.595 1327.93 181.246H1346.45C1346.45 181.246 1346.72 179.941 1346.72 178.114C1346.72 171.068 1340.97 165.327 1333.93 165.327C1326.62 165.327 1320.62 171.329 1320.62 178.636C1320.62 185.943 1326.62 191.946 1334.19 191.946ZM1327.93 176.027C1328.71 173.678 1330.8 171.59 1333.67 171.59C1336.54 171.59 1338.62 173.678 1339.41 176.027H1327.93ZM1354.82 191.946C1357.17 191.946 1359 190.119 1359 187.77C1359 185.422 1357.17 183.595 1354.82 183.595C1352.47 183.595 1350.65 185.422 1350.65 187.77C1350.65 190.119 1352.47 191.946 1354.82 191.946ZM1368.91 191.946C1371.26 191.946 1373.09 190.119 1373.09 187.77C1373.09 185.422 1371.26 183.595 1368.91 183.595C1366.57 183.595 1364.74 185.422 1364.74 187.77C1364.74 190.119 1366.57 191.946 1368.91 191.946ZM1383.01 191.946C1385.35 191.946 1387.18 190.119 1387.18 187.77C1387.18 185.422 1385.35 183.595 1383.01 183.595C1380.66 183.595 1378.83 185.422 1378.83 187.77C1378.83 190.119 1380.66 191.946 1383.01 191.946Z" fill="white"/>
<rect x="1414.49" y="88" width="74.3588" height="74.3588" rx="37.1794" fill="#FF4088"/>
<path d="M1442.81 140.179H1450.13L1463.11 113.262V107.123H1440.45V113.734H1455.56L1442.81 140.179Z" fill="white"/>
<g opacity="0.3" filter="url(#filter0_d_6613_55773)">
<rect x="468.897" y="443.683" width="820.193" height="353.495" rx="24.8543" fill="white"/>
<rect opacity="0.5" x="518.606" y="493.392" width="74.563" height="74.563" rx="37.2815" fill="#CFCFCF"/>
<path d="M621.826 545.819H628.164V526.383L637.671 538.213L647.177 526.383V545.819H653.515V516.242H647.811L637.671 528.918L627.53 516.242H621.826V545.819ZM668.924 546.241C675.051 546.241 679.91 541.382 679.91 535.467C679.91 529.552 675.051 524.693 668.924 524.693C662.798 524.693 657.939 529.552 657.939 535.467C657.939 541.382 662.798 546.241 668.924 546.241ZM668.924 540.96C665.966 540.96 663.643 538.636 663.643 535.467C663.643 532.298 665.966 529.974 668.924 529.974C671.882 529.974 674.206 532.298 674.206 535.467C674.206 538.636 671.882 540.96 668.924 540.96ZM691.311 546.241C695.748 546.241 697.86 542.861 697.86 542.861H698.072V545.819H703.776V516.242H698.072V528.073H697.86C697.86 528.073 695.748 524.693 691.311 524.693C686.452 524.693 682.016 529.129 682.016 535.467C682.016 541.805 686.452 546.241 691.311 546.241ZM693.001 540.96C690.044 540.96 687.72 538.636 687.72 535.467C687.72 532.298 690.044 529.974 693.001 529.974C695.959 529.974 698.283 532.298 698.283 535.467C698.283 538.636 695.959 540.96 693.001 540.96ZM708.64 545.819H714.344V525.115H708.64V545.819ZM711.471 522.369C713.287 522.369 714.766 520.89 714.766 519.2C714.766 517.51 713.287 516.031 711.513 516.031C709.696 516.031 708.217 517.51 708.217 519.2C708.217 520.89 709.696 522.369 711.471 522.369ZM720.244 545.819H725.948V530.819H733.554V545.819H739.258V525.538H725.948V524.27C725.948 522.369 727.005 521.312 728.695 521.312C729.751 521.312 730.596 521.735 730.596 521.735V516.453C730.596 516.453 729.117 515.82 727.216 515.82C722.991 515.82 720.244 518.566 720.244 523.425V525.538H717.075V530.819H720.244V545.819ZM736.385 522.369C738.201 522.369 739.68 520.89 739.68 519.2C739.68 517.51 738.201 516.031 736.427 516.031C734.61 516.031 733.131 517.51 733.131 519.2C733.131 520.89 734.61 522.369 736.385 522.369ZM753.845 546.241C759.549 546.241 762.718 542.861 762.718 542.861L759.76 538.847C759.76 538.847 757.859 541.171 754.267 541.171C751.098 541.171 749.408 539.481 748.774 537.58H763.774C763.774 537.58 763.985 536.523 763.985 535.044C763.985 529.34 759.338 524.693 753.634 524.693C747.718 524.693 742.859 529.552 742.859 535.467C742.859 541.382 747.718 546.241 753.845 546.241ZM748.774 533.354C749.408 531.453 751.098 529.763 753.422 529.763C755.746 529.763 757.436 531.453 758.07 533.354H748.774ZM775.407 546.241C779.843 546.241 781.956 542.861 781.956 542.861H782.167V545.819H787.871V516.242H782.167V528.073H781.956C781.956 528.073 779.843 524.693 775.407 524.693C770.548 524.693 766.111 529.129 766.111 535.467C766.111 541.805 770.548 546.241 775.407 546.241ZM777.097 540.96C774.139 540.96 771.815 538.636 771.815 535.467C771.815 532.298 774.139 529.974 777.097 529.974C780.054 529.974 782.378 532.298 782.378 535.467C782.378 538.636 780.054 540.96 777.097 540.96ZM800.761 554.692H806.465V542.861H806.677C806.677 542.861 808.789 546.241 813.226 546.241C818.085 546.241 822.521 541.805 822.521 535.467C822.521 529.129 818.085 524.693 813.226 524.693C808.789 524.693 806.677 528.073 806.677 528.073H806.465V525.115H800.761V554.692ZM811.536 540.96C808.578 540.96 806.254 538.636 806.254 535.467C806.254 532.298 808.578 529.974 811.536 529.974C814.493 529.974 816.817 532.298 816.817 535.467C816.817 538.636 814.493 540.96 811.536 540.96ZM835.629 546.241C841.756 546.241 846.615 541.382 846.615 535.467C846.615 529.552 841.756 524.693 835.629 524.693C829.503 524.693 824.644 529.552 824.644 535.467C824.644 541.382 829.503 546.241 835.629 546.241ZM835.629 540.96C832.672 540.96 830.348 538.636 830.348 535.467C830.348 532.298 832.672 529.974 835.629 529.974C838.587 529.974 840.911 532.298 840.911 535.467C840.911 538.636 838.587 540.96 835.629 540.96ZM856.749 546.241C862.453 546.241 865.411 543.284 865.411 539.692C865.411 532.932 854.848 533.354 854.848 531.031C854.848 530.397 855.481 529.763 856.96 529.763C859.918 529.763 861.608 531.453 861.608 531.453L864.988 527.862C864.988 527.862 862.242 524.693 856.96 524.693C851.679 524.693 848.721 527.65 848.721 531.031C848.721 537.791 859.284 537.368 859.284 539.692C859.284 540.537 858.65 541.171 856.749 541.171C853.369 541.171 851.256 538.847 851.256 538.847L847.876 542.439C847.876 542.439 851.045 546.241 856.749 546.241ZM877.033 546.241C879.146 546.241 880.836 545.608 880.836 545.608V540.326C880.836 540.326 879.78 540.749 878.512 540.749C876.822 540.749 875.766 539.692 875.766 537.791V530.819H880.414V525.538H875.766V519.2H870.696V523.003C870.696 524.693 869.851 525.538 868.372 525.538H866.47V530.819H870.062V538.636C870.062 543.495 872.808 546.241 877.033 546.241Z" fill="#393939"/>
<rect opacity="0.5" x="618.023" y="584.673" width="402.64" height="14.9126" rx="7.4563" fill="#CFCFCF"/>
<rect opacity="0.5" x="618.023" y="624.44" width="229.903" height="14.9126" rx="7.4563" fill="#CFCFCF"/>
<rect x="470.14" y="444.926" width="817.707" height="351.009" rx="23.6116" stroke="#EEEEEE" stroke-width="2.48543"/>
</g>
<g opacity="0.5" filter="url(#filter1_d_6613_55773)">
<rect x="516.223" y="373.042" width="820.193" height="353.495" rx="24.8543" fill="white"/>
<rect opacity="0.5" x="565.932" y="407.838" width="74.563" height="74.563" rx="37.2815" fill="#CFCFCF"/>
<path d="M669.152 460.265H675.49V441.885L689.856 460.265H695.56V430.688H689.222V449.068L674.856 430.688H669.152V460.265ZM710.969 460.688C716.673 460.688 719.842 457.307 719.842 457.307L716.884 453.293C716.884 453.293 714.983 455.617 711.391 455.617C708.222 455.617 706.532 453.927 705.898 452.026H720.898C720.898 452.026 721.109 450.97 721.109 449.491C721.109 443.787 716.462 439.139 710.757 439.139C704.842 439.139 699.983 443.998 699.983 449.913C699.983 455.829 704.842 460.688 710.969 460.688ZM705.898 447.801C706.532 445.899 708.222 444.209 710.546 444.209C712.87 444.209 714.56 445.899 715.194 447.801H705.898ZM728.812 460.265H734.009L737.939 448.223H738.108L742.037 460.265H747.234L754.502 439.561H748.375L744.573 451.815H744.361L740.347 439.561H735.7L731.686 451.815H731.474L727.672 439.561H721.545L728.812 460.265ZM763.373 460.265H769.077V439.561H763.373V460.265ZM766.204 436.815C768.021 436.815 769.5 435.336 769.5 433.646C769.5 431.956 768.021 430.477 766.246 430.477C764.43 430.477 762.951 431.956 762.951 433.646C762.951 435.336 764.43 436.815 766.204 436.815ZM773.71 460.265H779.414V448.857C779.414 446.322 781.104 444.632 783.428 444.632C785.541 444.632 786.808 445.899 786.808 448.223V460.265H792.513V448.857C792.513 446.322 794.203 444.632 796.526 444.632C798.639 444.632 799.907 445.899 799.907 448.223V460.265H805.611V447.378C805.611 442.308 802.442 439.139 798.428 439.139C793.991 439.139 791.667 442.73 791.667 442.73H791.456C791.456 442.73 789.766 439.139 785.33 439.139C781.316 439.139 779.626 442.519 779.626 442.519H779.414V439.561H773.71V460.265ZM815.53 460.688C819.544 460.688 821.657 457.73 821.657 457.73H821.868V460.265C823.136 460.265 827.572 460.265 827.572 460.265V447.378C827.572 442.73 823.981 439.139 818.699 439.139C813.206 439.139 810.249 443.153 810.249 443.153L813.629 446.533C813.629 446.533 815.319 444.209 818.277 444.209C820.389 444.209 821.657 445.477 821.868 446.956L815.319 448.139C811.516 448.815 809.192 451.392 809.192 454.772C809.192 458.153 811.727 460.688 815.53 460.688ZM817.431 456.04C815.741 456.04 814.896 455.195 814.896 453.927C814.896 452.871 815.741 452.068 817.22 451.815L821.868 450.97V451.392C821.868 454.139 819.967 456.04 817.431 456.04ZM840.883 469.138C847.432 469.138 852.08 464.49 852.08 458.153V439.561H846.376V442.519H846.165C846.165 442.519 844.263 439.139 839.827 439.139C835.179 439.139 830.954 443.364 830.954 449.491C830.954 455.617 835.179 459.843 839.827 459.843C844.263 459.843 846.165 456.462 846.165 456.462H846.376V458.153C846.376 461.533 844.052 463.857 840.883 463.857C837.503 463.857 835.39 461.321 835.39 461.321L831.799 464.913C831.799 464.913 834.757 469.138 840.883 469.138ZM841.517 454.561C838.771 454.561 836.658 452.448 836.658 449.491C836.658 446.533 838.771 444.421 841.517 444.421C844.263 444.421 846.376 446.533 846.376 449.491C846.376 452.448 844.263 454.561 841.517 454.561ZM866.429 460.688C872.133 460.688 875.302 457.307 875.302 457.307L872.345 453.293C872.345 453.293 870.443 455.617 866.852 455.617C863.683 455.617 861.993 453.927 861.359 452.026H876.359C876.359 452.026 876.57 450.97 876.57 449.491C876.57 443.787 871.922 439.139 866.218 439.139C860.303 439.139 855.444 443.998 855.444 449.913C855.444 455.829 860.303 460.688 866.429 460.688ZM861.359 447.801C861.993 445.899 863.683 444.209 866.007 444.209C868.331 444.209 870.021 445.899 870.655 447.801H861.359ZM893.271 460.688C897.285 460.688 899.398 457.73 899.398 457.73H899.609V460.265C900.877 460.265 905.313 460.265 905.313 460.265V447.378C905.313 442.73 901.722 439.139 896.44 439.139C890.947 439.139 887.99 443.153 887.99 443.153L891.37 446.533C891.37 446.533 893.06 444.209 896.018 444.209C898.13 444.209 899.398 445.477 899.609 446.956L893.06 448.139C889.257 448.815 886.933 451.392 886.933 454.772C886.933 458.153 889.468 460.688 893.271 460.688ZM895.173 456.04C893.482 456.04 892.637 455.195 892.637 453.927C892.637 452.871 893.482 452.068 894.961 451.815L899.609 450.97V451.392C899.609 454.139 897.708 456.04 895.173 456.04ZM917.99 460.688C922.427 460.688 924.54 457.307 924.54 457.307H924.751V460.265H930.455V430.688H924.751V442.519H924.54C924.54 442.519 922.427 439.139 917.99 439.139C913.131 439.139 908.695 443.575 908.695 449.913C908.695 456.251 913.131 460.688 917.99 460.688ZM919.681 455.406C916.723 455.406 914.399 453.082 914.399 449.913C914.399 446.744 916.723 444.421 919.681 444.421C922.638 444.421 924.962 446.744 924.962 449.913C924.962 453.082 922.638 455.406 919.681 455.406ZM943.347 460.688C947.783 460.688 949.896 457.307 949.896 457.307H950.107V460.265H955.811V430.688H950.107V442.519H949.896C949.896 442.519 947.783 439.139 943.347 439.139C938.488 439.139 934.051 443.575 934.051 449.913C934.051 456.251 938.488 460.688 943.347 460.688ZM945.037 455.406C942.079 455.406 939.755 453.082 939.755 449.913C939.755 446.744 942.079 444.421 945.037 444.421C947.995 444.421 950.318 446.744 950.318 449.913C950.318 453.082 947.995 455.406 945.037 455.406ZM970.393 460.688C976.097 460.688 979.266 457.307 979.266 457.307L976.309 453.293C976.309 453.293 974.407 455.617 970.816 455.617C967.647 455.617 965.957 453.927 965.323 452.026H980.323C980.323 452.026 980.534 450.97 980.534 449.491C980.534 443.787 975.886 439.139 970.182 439.139C964.267 439.139 959.408 443.998 959.408 449.913C959.408 455.829 964.267 460.688 970.393 460.688ZM965.323 447.801C965.957 445.899 967.647 444.209 969.971 444.209C972.295 444.209 973.985 445.899 974.618 447.801H965.323ZM991.955 460.688C996.392 460.688 998.504 457.307 998.504 457.307H998.716V460.265H1004.42V430.688H998.716V442.519H998.504C998.504 442.519 996.392 439.139 991.955 439.139C987.096 439.139 982.66 443.575 982.66 449.913C982.66 456.251 987.096 460.688 991.955 460.688ZM993.645 455.406C990.688 455.406 988.364 453.082 988.364 449.913C988.364 446.744 990.688 444.421 993.645 444.421C996.603 444.421 998.927 446.744 998.927 449.913C998.927 453.082 996.603 455.406 993.645 455.406Z" fill="#393939"/>
<rect opacity="0.5" x="665.349" y="499.119" width="402.64" height="14.9126" rx="7.4563" fill="#CFCFCF"/>
<rect opacity="0.5" x="665.349" y="538.886" width="229.903" height="14.9126" rx="7.4563" fill="#CFCFCF"/>
<rect x="517.466" y="374.285" width="817.707" height="351.009" rx="23.6116" stroke="#EEEEEE" stroke-width="2.48543"/>
</g>
<g opacity="0.85" filter="url(#filter2_d_6613_55773)">
<rect x="568.041" y="318.512" width="820.193" height="354.223" rx="24.8543" fill="white"/>
<rect opacity="0.5" x="617.75" y="368.221" width="74.563" height="74.563" rx="37.2815" fill="#CFCFCF"/>
<path d="M720.746 418.648H726.711V401.349L740.231 418.648H745.6V390.811H739.635V408.11L726.114 390.811H720.746V418.648ZM760.898 419.046C766.266 419.046 769.249 415.864 769.249 415.864L766.465 412.086C766.465 412.086 764.676 414.274 761.295 414.274C758.313 414.274 756.722 412.683 756.126 410.893H770.243C770.243 410.893 770.442 409.899 770.442 408.507C770.442 403.139 766.068 398.764 760.699 398.764C755.132 398.764 750.558 403.338 750.558 408.905C750.558 414.472 755.132 419.046 760.898 419.046ZM756.126 406.917C756.722 405.127 758.313 403.537 760.5 403.537C762.687 403.537 764.278 405.127 764.875 406.917H756.126ZM778.487 418.648H783.379L787.077 407.314H787.236L790.934 418.648H795.826L802.666 399.162H796.899L793.32 410.695H793.121L789.344 399.162H784.969L781.191 410.695H780.993L777.414 399.162H771.647L778.487 418.648ZM813.799 418.648H819.167V404.531H826.325V418.648H831.694V399.56H819.167V398.367C819.167 396.577 820.161 395.583 821.752 395.583C822.746 395.583 823.542 395.981 823.542 395.981V391.01C823.542 391.01 822.15 390.413 820.36 390.413C816.384 390.413 813.799 392.998 813.799 397.571V399.56H810.816V404.531H813.799V418.648ZM828.99 396.577C830.7 396.577 832.091 395.185 832.091 393.595C832.091 392.004 830.7 390.612 829.029 390.612C827.319 390.612 825.928 392.004 825.928 393.595C825.928 395.185 827.319 396.577 828.99 396.577ZM837.271 418.648H842.639V390.811H837.271V418.648ZM857.17 419.046C862.538 419.046 865.521 415.864 865.521 415.864L862.737 412.086C862.737 412.086 860.947 414.274 857.567 414.274C854.585 414.274 852.994 412.683 852.397 410.893H866.515C866.515 410.893 866.714 409.899 866.714 408.507C866.714 403.139 862.339 398.764 856.971 398.764C851.403 398.764 846.83 403.338 846.83 408.905C846.83 414.472 851.403 419.046 857.17 419.046ZM852.397 406.917C852.994 405.127 854.585 403.537 856.772 403.537C858.959 403.537 860.55 405.127 861.146 406.917H852.397ZM884.023 419.046C887.801 419.046 889.789 416.262 889.789 416.262H889.988V418.648C891.181 418.648 895.357 418.648 895.357 418.648V406.519C895.357 402.145 891.976 398.764 887.006 398.764C881.836 398.764 879.052 402.542 879.052 402.542L882.234 405.724C882.234 405.724 883.824 403.537 886.608 403.537C888.596 403.537 889.789 404.73 889.988 406.121L883.824 407.235C880.245 407.871 878.058 410.297 878.058 413.478C878.058 416.66 880.444 419.046 884.023 419.046ZM885.813 414.671C884.222 414.671 883.427 413.876 883.427 412.683C883.427 411.689 884.222 410.933 885.614 410.695L889.988 409.899V410.297C889.988 412.882 888.199 414.671 885.813 414.671ZM908.084 419.046C912.259 419.046 914.247 415.864 914.247 415.864H914.446V418.648H919.815V390.811H914.446V401.946H914.247C914.247 401.946 912.259 398.764 908.084 398.764C903.51 398.764 899.335 402.94 899.335 408.905C899.335 414.87 903.51 419.046 908.084 419.046ZM909.674 414.075C906.891 414.075 904.703 411.888 904.703 408.905C904.703 405.923 906.891 403.735 909.674 403.735C912.458 403.735 914.645 405.923 914.645 408.905C914.645 411.888 912.458 414.075 909.674 414.075ZM932.744 419.046C936.919 419.046 938.908 415.864 938.908 415.864H939.106V418.648H944.475V390.811H939.106V401.946H938.908C938.908 401.946 936.919 398.764 932.744 398.764C928.171 398.764 923.995 402.94 923.995 408.905C923.995 414.87 928.171 419.046 932.744 419.046ZM934.334 414.075C931.551 414.075 929.364 411.888 929.364 408.905C929.364 405.923 931.551 403.735 934.334 403.735C937.118 403.735 939.305 405.923 939.305 408.905C939.305 411.888 937.118 414.075 934.334 414.075ZM958.995 419.046C964.363 419.046 967.346 415.864 967.346 415.864L964.562 412.086C964.562 412.086 962.772 414.274 959.392 414.274C956.41 414.274 954.819 412.683 954.223 410.893H968.34C968.34 410.893 968.539 409.899 968.539 408.507C968.539 403.139 964.164 398.764 958.796 398.764C953.228 398.764 948.655 403.338 948.655 408.905C948.655 414.472 953.228 419.046 958.995 419.046ZM954.223 406.917C954.819 405.127 956.41 403.537 958.597 403.537C960.784 403.537 962.375 405.127 962.971 406.917H954.223ZM980.083 419.046C984.259 419.046 986.247 415.864 986.247 415.864H986.446V418.648H991.815V390.811H986.446V401.946H986.247C986.247 401.946 984.259 398.764 980.083 398.764C975.51 398.764 971.335 402.94 971.335 408.905C971.335 414.87 975.51 419.046 980.083 419.046ZM981.674 414.075C978.89 414.075 976.703 411.888 976.703 408.905C976.703 405.923 978.89 403.735 981.674 403.735C984.458 403.735 986.645 405.923 986.645 408.905C986.645 411.888 984.458 414.075 981.674 414.075Z" fill="white"/>
<rect opacity="0.5" x="717.167" y="456.502" width="304.466" height="14.9126" rx="7.4563" fill="#CFCFCF"/>
<rect opacity="0.5" x="717.167" y="496.269" width="264.699" height="14.9126" rx="7.4563" fill="#CFCFCF"/>
<rect x="569.284" y="319.755" width="817.707" height="351.737" rx="23.6116" stroke="#EEEEEE" stroke-width="2.48543"/>
</g>
<g opacity="0.98" filter="url(#filter3_d_6613_55773)">
<rect x="617.614" y="260.265" width="817.947" height="353.204" rx="24.8543" fill="white"/>
<rect x="668.565" y="309.973" width="74.563" height="74.563" rx="37.2815" fill="#EEEEEE" fill-opacity="0.75"/>
<path d="M718.17 334.931V350.776H709.368V359.578H693.523V334.931H718.17ZM718.17 331.41H693.523C691.586 331.41 690.002 332.995 690.002 334.931V359.578C690.002 361.515 691.586 363.099 693.523 363.099H711.128L721.691 352.536V334.931C721.691 332.995 720.107 331.41 718.17 331.41ZM705.847 350.776H697.044V347.255H705.847V350.776ZM714.649 343.734H697.044V340.213H714.649V343.734Z" fill="#393939"/>
<rect x="717.031" y="358.439" width="27.3398" height="27.3398" rx="13.6699" fill="#38A413"/>
<path d="M725.108 375.372V377.702H727.438L734.31 370.829L731.98 368.499L725.108 375.372ZM736.112 369.027C736.355 368.785 736.355 368.394 736.112 368.151L734.658 366.697C734.416 366.455 734.025 366.455 733.782 366.697L732.645 367.834L734.975 370.165L736.112 369.027Z" fill="white"/>
<rect x="717.031" y="358.439" width="27.3398" height="27.3398" rx="13.6699" stroke="white" stroke-width="2.48543"/>
<path d="M773.028 359.973H779.366V340.537L788.872 352.368L798.379 340.537V359.973H804.717V330.396H799.013L788.872 343.072L778.732 330.396H773.028V359.973ZM820.126 360.396C826.253 360.396 831.112 355.537 831.112 349.621C831.112 343.706 826.253 338.847 820.126 338.847C813.999 338.847 809.14 343.706 809.14 349.621C809.14 355.537 813.999 360.396 820.126 360.396ZM820.126 355.114C817.168 355.114 814.844 352.79 814.844 349.621C814.844 346.452 817.168 344.129 820.126 344.129C823.084 344.129 825.408 346.452 825.408 349.621C825.408 352.79 823.084 355.114 820.126 355.114ZM842.513 360.396C846.95 360.396 849.062 357.015 849.062 357.015H849.274V359.973H854.978V330.396H849.274V342.227H849.062C849.062 342.227 846.95 338.847 842.513 338.847C837.654 338.847 833.218 343.283 833.218 349.621C833.218 355.959 837.654 360.396 842.513 360.396ZM844.203 355.114C841.246 355.114 838.922 352.79 838.922 349.621C838.922 346.452 841.246 344.129 844.203 344.129C847.161 344.129 849.485 346.452 849.485 349.621C849.485 352.79 847.161 355.114 844.203 355.114ZM859.842 359.973H865.546V339.269H859.842V359.973ZM862.672 336.523C864.489 336.523 865.968 335.044 865.968 333.354C865.968 331.664 864.489 330.185 862.715 330.185C860.898 330.185 859.419 331.664 859.419 333.354C859.419 335.044 860.898 336.523 862.672 336.523ZM871.446 359.973H877.15V344.974H884.756V359.973H890.46V339.692H877.15V338.424C877.15 336.523 878.206 335.467 879.897 335.467C880.953 335.467 881.798 335.889 881.798 335.889V330.608C881.798 330.608 880.319 329.974 878.418 329.974C874.192 329.974 871.446 332.72 871.446 337.579V339.692H868.277V344.974H871.446V359.973ZM887.586 336.523C889.403 336.523 890.882 335.044 890.882 333.354C890.882 331.664 889.403 330.185 887.629 330.185C885.812 330.185 884.333 331.664 884.333 333.354C884.333 335.044 885.812 336.523 887.586 336.523ZM905.047 360.396C910.751 360.396 913.92 357.015 913.92 357.015L910.962 353.002C910.962 353.002 909.061 355.325 905.469 355.325C902.3 355.325 900.61 353.635 899.976 351.734H914.976C914.976 351.734 915.187 350.678 915.187 349.199C915.187 343.495 910.539 338.847 904.835 338.847C898.92 338.847 894.061 343.706 894.061 349.621C894.061 355.537 898.92 360.396 905.047 360.396ZM899.976 347.509C900.61 345.607 902.3 343.917 904.624 343.917C906.948 343.917 908.638 345.607 909.272 347.509H899.976ZM926.609 360.396C931.045 360.396 933.158 357.015 933.158 357.015H933.369V359.973H939.073V330.396H933.369V342.227H933.158C933.158 342.227 931.045 338.847 926.609 338.847C921.75 338.847 917.313 343.283 917.313 349.621C917.313 355.959 921.75 360.396 926.609 360.396ZM928.299 355.114C925.341 355.114 923.017 352.79 923.017 349.621C923.017 346.452 925.341 344.129 928.299 344.129C931.256 344.129 933.58 346.452 933.58 349.621C933.58 352.79 931.256 355.114 928.299 355.114ZM951.963 368.846H957.667V357.015H957.879C957.879 357.015 959.991 360.396 964.428 360.396C969.287 360.396 973.723 355.959 973.723 349.621C973.723 343.283 969.287 338.847 964.428 338.847C959.991 338.847 957.879 342.227 957.879 342.227H957.667V339.269H951.963V368.846ZM962.738 355.114C959.78 355.114 957.456 352.79 957.456 349.621C957.456 346.452 959.78 344.129 962.738 344.129C965.695 344.129 968.019 346.452 968.019 349.621C968.019 352.79 965.695 355.114 962.738 355.114ZM986.831 360.396C992.958 360.396 997.817 355.537 997.817 349.621C997.817 343.706 992.958 338.847 986.831 338.847C980.705 338.847 975.846 343.706 975.846 349.621C975.846 355.537 980.705 360.396 986.831 360.396ZM986.831 355.114C983.874 355.114 981.55 352.79 981.55 349.621C981.55 346.452 983.874 344.129 986.831 344.129C989.789 344.129 992.113 346.452 992.113 349.621C992.113 352.79 989.789 355.114 986.831 355.114ZM1007.95 360.396C1013.65 360.396 1016.61 357.438 1016.61 353.847C1016.61 347.086 1006.05 347.509 1006.05 345.185C1006.05 344.551 1006.68 343.917 1008.16 343.917C1011.12 343.917 1012.81 345.607 1012.81 345.607L1016.19 342.016C1016.19 342.016 1013.44 338.847 1008.16 338.847C1002.88 338.847 999.923 341.805 999.923 345.185C999.923 351.945 1010.49 351.523 1010.49 353.847C1010.49 354.692 1009.85 355.325 1007.95 355.325C1004.57 355.325 1002.46 353.002 1002.46 353.002L999.078 356.593C999.078 356.593 1002.25 360.396 1007.95 360.396ZM1028.24 360.396C1030.35 360.396 1032.04 359.762 1032.04 359.762V354.48C1032.04 354.48 1030.98 354.903 1029.71 354.903C1028.02 354.903 1026.97 353.847 1026.97 351.945V344.974H1031.62V339.692H1026.97V333.354H1021.9V337.157C1021.9 338.847 1021.05 339.692 1019.57 339.692H1017.67V344.974H1021.26V352.79C1021.26 357.649 1024.01 360.396 1028.24 360.396Z" fill="#393939"/>
<rect x="769.225" y="409.391" width="561.708" height="14.9126" rx="7.4563" fill="#EEEEEE"/>
<rect x="769.225" y="449.158" width="320.621" height="14.9126" rx="7.4563" fill="#EEEEEE"/>
<rect x="769.225" y="488.924" width="377.786" height="14.9126" rx="7.4563" fill="#EEEEEE"/>
<rect x="769.225" y="528.691" width="482.174" height="14.9126" rx="7.4563" fill="#EEEEEE"/>
<rect x="618.856" y="261.507" width="815.462" height="350.719" rx="23.6116" stroke="#EEEEEE" stroke-width="2.48543"/>
</g>
<g filter="url(#filter4_d_6613_55773)">
<path fill-rule="evenodd" clip-rule="evenodd" d="M1444.21 281.174L1476.03 266.782L1383.86 225.697L1417.67 320.774L1434.49 290.172L1459.98 317.729L1469.71 308.73L1444.21 281.174V281.174Z" fill="white"/>
<path d="M1477.21 269.406L1483.06 266.763L1477.2 264.152L1385.03 223.067L1378.89 220.331L1381.14 226.662L1414.96 321.739L1417.11 327.781L1420.2 322.161L1435.09 295.061L1457.87 319.685L1459.83 321.799L1461.94 319.843L1471.66 310.844L1473.78 308.888L1471.82 306.774L1449.04 282.151L1477.21 269.406Z" stroke="#034AD8" stroke-width="5.76"/>
</g>
</g>
<defs>
<filter id="filter0_d_6613_55773" x="419.188" y="393.974" width="919.61" height="452.912" filterUnits="userSpaceOnUse" color-interpolation-filters="sRGB">
<feFlood flood-opacity="0" result="BackgroundImageFix"/>
<feColorMatrix in="SourceAlpha" type="matrix" values="0 0 0 0 0 0 0 0 0 0 0 0 0 0 0 0 0 0 127 0" result="hardAlpha"/>
<feOffset/>
<feGaussianBlur stdDeviation="24.8543"/>
<feColorMatrix type="matrix" values="0 0 0 0 0.2 0 0 0 0 0.2 0 0 0 0 0.2 0 0 0 0.1 0"/>
<feBlend mode="normal" in2="BackgroundImageFix" result="effect1_dropShadow_6613_55773"/>
<feBlend mode="normal" in="SourceGraphic" in2="effect1_dropShadow_6613_55773" result="shape"/>
</filter>
<filter id="filter1_d_6613_55773" x="466.514" y="323.333" width="919.61" height="452.912" filterUnits="userSpaceOnUse" color-interpolation-filters="sRGB">
<feFlood flood-opacity="0" result="BackgroundImageFix"/>
<feColorMatrix in="SourceAlpha" type="matrix" values="0 0 0 0 0 0 0 0 0 0 0 0 0 0 0 0 0 0 127 0" result="hardAlpha"/>
<feOffset/>
<feGaussianBlur stdDeviation="24.8543"/>
<feColorMatrix type="matrix" values="0 0 0 0 0.2 0 0 0 0 0.2 0 0 0 0 0.2 0 0 0 0.1 0"/>
<feBlend mode="normal" in2="BackgroundImageFix" result="effect1_dropShadow_6613_55773"/>
<feBlend mode="normal" in="SourceGraphic" in2="effect1_dropShadow_6613_55773" result="shape"/>
</filter>
<filter id="filter2_d_6613_55773" x="518.332" y="268.804" width="919.61" height="453.64" filterUnits="userSpaceOnUse" color-interpolation-filters="sRGB">
<feFlood flood-opacity="0" result="BackgroundImageFix"/>
<feColorMatrix in="SourceAlpha" type="matrix" values="0 0 0 0 0 0 0 0 0 0 0 0 0 0 0 0 0 0 127 0" result="hardAlpha"/>
<feOffset/>
<feGaussianBlur stdDeviation="24.8543"/>
<feColorMatrix type="matrix" values="0 0 0 0 0.2 0 0 0 0 0.2 0 0 0 0 0.2 0 0 0 0.1 0"/>
<feBlend mode="normal" in2="BackgroundImageFix" result="effect1_dropShadow_6613_55773"/>
<feBlend mode="normal" in="SourceGraphic" in2="effect1_dropShadow_6613_55773" result="shape"/>
</filter>
<filter id="filter3_d_6613_55773" x="567.905" y="210.556" width="917.364" height="452.622" filterUnits="userSpaceOnUse" color-interpolation-filters="sRGB">
<feFlood flood-opacity="0" result="BackgroundImageFix"/>
<feColorMatrix in="SourceAlpha" type="matrix" values="0 0 0 0 0 0 0 0 0 0 0 0 0 0 0 0 0 0 127 0" result="hardAlpha"/>
<feOffset/>
<feGaussianBlur stdDeviation="24.8543"/>
<feColorMatrix type="matrix" values="0 0 0 0 0.2 0 0 0 0 0.2 0 0 0 0 0.2 0 0 0 0.1 0"/>
<feBlend mode="normal" in2="BackgroundImageFix" result="effect1_dropShadow_6613_55773"/>
<feBlend mode="normal" in="SourceGraphic" in2="effect1_dropShadow_6613_55773" result="shape"/>
</filter>
<filter id="filter4_d_6613_55773" x="1349.07" y="202.537" width="165.868" height="169.533" filterUnits="userSpaceOnUse" color-interpolation-filters="sRGB">
<feFlood flood-opacity="0" result="BackgroundImageFix"/>
<feColorMatrix in="SourceAlpha" type="matrix" values="0 0 0 0 0 0 0 0 0 0 0 0 0 0 0 0 0 0 127 0" result="hardAlpha"/>
<feOffset dy="12.4272"/>
<feGaussianBlur stdDeviation="12.4272"/>
<feColorMatrix type="matrix" values="0 0 0 0 0 0 0 0 0 0.0823529 0 0 0 0 0.717647 0 0 0 0.3 0"/>
<feBlend mode="normal" in2="BackgroundImageFix" result="effect1_dropShadow_6613_55773"/>
<feBlend mode="normal" in="SourceGraphic" in2="effect1_dropShadow_6613_55773" result="shape"/>
</filter>
<clipPath id="clip0_6613_55773">
<rect width="2000" height="1050" rx="20" fill="white"/>
</clipPath>
</defs>
</svg>
