<svg width="555" height="296" viewBox="0 0 555 296" fill="none" xmlns="http://www.w3.org/2000/svg">
<g filter="url(#filter0_d_1619_7234)">
<rect x="193.328" width="168.777" height="97.7253" rx="4.59884" fill="white" fill-opacity="0.75"/>
<circle cx="202.524" cy="3.67893" r="1.60959" fill="#CF352F"/>
<circle cx="206.813" cy="3.67893" r="1.60959" fill="#F7E064"/>
<circle cx="211.11" cy="3.67893" r="1.60959" fill="#38A413"/>
<g clip-path="url(#clip0_1619_7234)">
<rect x="196.328" y="7" width="163" height="89" rx="2.3" fill="white"/>
<rect x="201.328" y="71" width="153" height="22" rx="2" fill="#034AD8"/>
<g clip-path="url(#clip1_1619_7234)">
<rect x="247.828" y="73" width="16" height="2" rx="1" fill="#8BB4ED"/>
<rect x="249.828" y="77" width="12" height="1.09091" rx="0.545455" fill="#8BB4ED"/>
<rect x="249.828" y="79" width="12" height="1" rx="0.5" fill="#8BB4ED"/>
<rect x="249.828" y="81" width="12" height="1" rx="0.5" fill="#8BB4ED"/>
</g>
<g clip-path="url(#clip2_1619_7234)">
<rect x="269.828" y="73" width="16" height="2" rx="1" fill="#8BB4ED"/>
<rect x="271.828" y="77" width="12" height="1.09091" rx="0.545455" fill="#8BB4ED"/>
<rect x="271.828" y="79" width="12" height="1" rx="0.5" fill="#8BB4ED"/>
<rect x="271.828" y="81" width="12" height="1" rx="0.5" fill="#8BB4ED"/>
</g>
<g clip-path="url(#clip3_1619_7234)">
<rect x="291.828" y="73" width="16" height="2" rx="1" fill="#8BB4ED"/>
<rect x="293.828" y="77" width="12" height="1.09091" rx="0.545455" fill="#8BB4ED"/>
<rect x="293.828" y="79" width="12" height="1" rx="0.5" fill="#8BB4ED"/>
<rect x="293.828" y="81" width="12" height="1" rx="0.5" fill="#8BB4ED"/>
</g>
<rect x="271.328" y="90" width="3" height="2" rx="1" fill="#8BB4ED"/>
<rect x="276.328" y="90" width="3" height="2" rx="1" fill="#8BB4ED"/>
<rect x="281.328" y="90" width="3" height="2" rx="1" fill="#8BB4ED"/>
<rect x="201.328" y="10" width="153" height="11" rx="2" fill="#034AD8"/>
<rect x="208.828" y="12.5" width="16" height="6" rx="2" fill="#8BB4ED"/>
<rect x="252.828" y="14.5" width="16" height="2" rx="1" fill="#8BB4ED"/>
<rect x="273.828" y="14.5" width="16" height="2" rx="1" fill="#8BB4ED"/>
<rect x="294.828" y="14.5" width="16" height="2" rx="1" fill="#8BB4ED"/>
<rect x="338.828" y="14.5" width="3" height="2" rx="1" fill="#8BB4ED"/>
<rect x="343.828" y="14.5" width="3" height="2" rx="1" fill="#8BB4ED"/>
<rect x="209.328" y="34" width="39" height="28" rx="2" fill="#EEEEEE"/>
<g clip-path="url(#clip4_1619_7234)">
<path d="M238.328 55V41C238.328 39.9 237.428 39 236.328 39H222.328C221.228 39 220.328 39.9 220.328 41V55C220.328 56.1 221.228 57 222.328 57H236.328C237.428 57 238.328 56.1 238.328 55ZM226.228 49.98L228.328 52.51L231.428 48.52C231.628 48.26 232.028 48.26 232.228 48.53L235.738 53.21C235.988 53.54 235.748 54.01 235.338 54.01H223.348C222.928 54.01 222.698 53.53 222.958 53.2L225.448 50C225.638 49.74 226.018 49.73 226.228 49.98Z" fill="#CFCFCF"/>
</g>
<rect x="258.328" y="34" width="39" height="28" rx="2" fill="#EEEEEE"/>
<g clip-path="url(#clip5_1619_7234)">
<path d="M278.328 43V41C278.328 39.9 277.428 39 276.328 39H270.328C269.228 39 268.328 39.9 268.328 41V55C268.328 56.1 269.228 57 270.328 57H286.328C287.428 57 288.328 56.1 288.328 55V45C288.328 43.9 287.428 43 286.328 43H278.328ZM272.328 55H270.328V53H272.328V55ZM272.328 51H270.328V49H272.328V51ZM272.328 47H270.328V45H272.328V47ZM272.328 43H270.328V41H272.328V43ZM276.328 55H274.328V53H276.328V55ZM276.328 51H274.328V49H276.328V51ZM276.328 47H274.328V45H276.328V47ZM276.328 43H274.328V41H276.328V43ZM285.328 55H278.328V53H280.328V51H278.328V49H280.328V47H278.328V45H285.328C285.878 45 286.328 45.45 286.328 46V54C286.328 54.55 285.878 55 285.328 55ZM284.328 47H282.328V49H284.328V47ZM284.328 51H282.328V53H284.328V51Z" fill="#CFCFCF"/>
</g>
<rect x="307.328" y="34" width="39" height="28" rx="2" fill="#EEEEEE"/>
<g clip-path="url(#clip6_1619_7234)">
<path d="M331.328 47C332.988 47 334.318 45.66 334.318 44C334.318 42.34 332.988 41 331.328 41C329.668 41 328.328 42.34 328.328 44C328.328 45.66 329.668 47 331.328 47ZM323.328 47C324.988 47 326.318 45.66 326.318 44C326.318 42.34 324.988 41 323.328 41C321.668 41 320.328 42.34 320.328 44C320.328 45.66 321.668 47 323.328 47ZM323.328 49C320.998 49 316.328 50.17 316.328 52.5V54C316.328 54.55 316.778 55 317.328 55H329.328C329.878 55 330.328 54.55 330.328 54V52.5C330.328 50.17 325.658 49 323.328 49ZM331.328 49C331.038 49 330.708 49.02 330.358 49.05C330.378 49.06 330.388 49.08 330.398 49.09C331.538 49.92 332.328 51.03 332.328 52.5V54C332.328 54.35 332.258 54.69 332.148 55H337.328C337.878 55 338.328 54.55 338.328 54V52.5C338.328 50.17 333.658 49 331.328 49Z" fill="#CFCFCF"/>
</g>
<rect opacity="0.8" x="209.328" y="29" width="21" height="3" rx="1.5" fill="#CFCFCF"/>
<rect opacity="0.8" x="258.328" y="29" width="21" height="3" rx="1.5" fill="#CFCFCF"/>
<rect opacity="0.8" x="307.328" y="29" width="21" height="3" rx="1.5" fill="#CFCFCF"/>
</g>
<rect width="168.777" height="97.7253" rx="4.59884" transform="matrix(-1 -8.74228e-08 -8.74228e-08 1 550.328 190.275)" fill="white" fill-opacity="0.75"/>
<circle cx="1.60959" cy="1.60959" r="1.60959" transform="matrix(-1 -8.74228e-08 -8.74228e-08 1 398.805 193)" fill="#CF352F"/>
<circle cx="1.60959" cy="1.60959" r="1.60959" transform="matrix(-1 -8.74228e-08 -8.74228e-08 1 394.516 193)" fill="#F7E064"/>
<circle cx="1.60959" cy="1.60959" r="1.60959" transform="matrix(-1 -8.74228e-08 -8.74228e-08 1 390.219 193)" fill="#38A413"/>
<g clip-path="url(#clip7_1619_7234)">
<rect x="384.328" y="197" width="163" height="89" rx="2.3" fill="white"/>
<rect x="389.328" y="261.275" width="153" height="22" rx="2" fill="#034AD8"/>
<g clip-path="url(#clip8_1619_7234)">
<rect x="435.828" y="263.275" width="16" height="2" rx="1" fill="#8BB4ED"/>
<rect x="437.828" y="267.275" width="12" height="1.09091" rx="0.545455" fill="#8BB4ED"/>
<rect x="437.828" y="269.275" width="12" height="1" rx="0.5" fill="#8BB4ED"/>
<rect x="437.828" y="271.275" width="12" height="1" rx="0.5" fill="#8BB4ED"/>
</g>
<g clip-path="url(#clip9_1619_7234)">
<rect x="457.828" y="263.275" width="16" height="2" rx="1" fill="#8BB4ED"/>
<rect x="459.828" y="267.275" width="12" height="1.09091" rx="0.545455" fill="#8BB4ED"/>
<rect x="459.828" y="269.275" width="12" height="1" rx="0.5" fill="#8BB4ED"/>
<rect x="459.828" y="271.275" width="12" height="1" rx="0.5" fill="#8BB4ED"/>
</g>
<g clip-path="url(#clip10_1619_7234)">
<rect x="479.828" y="263.275" width="16" height="2" rx="1" fill="#8BB4ED"/>
<rect x="481.828" y="267.275" width="12" height="1.09091" rx="0.545455" fill="#8BB4ED"/>
<rect x="481.828" y="269.275" width="12" height="1" rx="0.5" fill="#8BB4ED"/>
<rect x="481.828" y="271.275" width="12" height="1" rx="0.5" fill="#8BB4ED"/>
</g>
<rect x="459.328" y="280.275" width="3" height="2" rx="1" fill="#8BB4ED"/>
<rect x="464.328" y="280.275" width="3" height="2" rx="1" fill="#8BB4ED"/>
<rect x="469.328" y="280.275" width="3" height="2" rx="1" fill="#8BB4ED"/>
<rect x="389.328" y="200.275" width="153" height="11" rx="2" fill="#034AD8"/>
<rect x="396.828" y="202.775" width="16" height="6" rx="2" fill="#8BB4ED"/>
<rect x="440.828" y="204.775" width="16" height="2" rx="1" fill="#8BB4ED"/>
<rect x="461.828" y="204.775" width="16" height="2" rx="1" fill="#8BB4ED"/>
<rect x="482.828" y="204.775" width="16" height="2" rx="1" fill="#8BB4ED"/>
<rect x="526.828" y="204.775" width="3" height="2" rx="1" fill="#8BB4ED"/>
<rect x="531.828" y="204.775" width="3" height="2" rx="1" fill="#8BB4ED"/>
<rect opacity="0.8" x="397.328" y="225" width="138" height="28" rx="2" fill="#F4F4F4"/>
<g clip-path="url(#clip11_1619_7234)">
<path d="M417.328 234V232C417.328 230.9 416.428 230 415.328 230H409.328C408.228 230 407.328 230.9 407.328 232V246C407.328 247.1 408.228 248 409.328 248H425.328C426.428 248 427.328 247.1 427.328 246V236C427.328 234.9 426.428 234 425.328 234H417.328ZM411.328 246H409.328V244H411.328V246ZM411.328 242H409.328V240H411.328V242ZM411.328 238H409.328V236H411.328V238ZM411.328 234H409.328V232H411.328V234ZM415.328 246H413.328V244H415.328V246ZM415.328 242H413.328V240H415.328V242ZM415.328 238H413.328V236H415.328V238ZM415.328 234H413.328V232H415.328V234ZM424.328 246H417.328V244H419.328V242H417.328V240H419.328V238H417.328V236H424.328C424.878 236 425.328 236.45 425.328 237V245C425.328 245.55 424.878 246 424.328 246ZM423.328 238H421.328V240H423.328V238ZM423.328 242H421.328V244H423.328V242Z" fill="#CFCFCF"/>
</g>
</g>
<rect width="168.777" height="97.7253" rx="4.59884" transform="matrix(-1 -8.74228e-08 -8.74228e-08 1 361.547 190.275)" fill="white" fill-opacity="0.75"/>
<circle cx="1.60959" cy="1.60959" r="1.60959" transform="matrix(-1 -8.74228e-08 -8.74228e-08 1 209.805 192)" fill="#CF352F"/>
<circle cx="1.60959" cy="1.60959" r="1.60959" transform="matrix(-1 -8.74228e-08 -8.74228e-08 1 205.516 192)" fill="#F7E064"/>
<circle cx="1.60959" cy="1.60959" r="1.60959" transform="matrix(-1 -8.74228e-08 -8.74228e-08 1 201.219 192)" fill="#38A413"/>
<g clip-path="url(#clip12_1619_7234)">
<rect x="195.547" y="197.275" width="163" height="89" rx="2.3" fill="white"/>
<rect x="200.547" y="261.275" width="153" height="22" rx="2" fill="#034AD8"/>
<g clip-path="url(#clip13_1619_7234)">
<rect x="247.047" y="263.275" width="16" height="2" rx="1" fill="#8BB4ED"/>
<rect x="249.047" y="267.275" width="12" height="1.09091" rx="0.545455" fill="#8BB4ED"/>
<rect x="249.047" y="269.275" width="12" height="1" rx="0.5" fill="#8BB4ED"/>
<rect x="249.047" y="271.275" width="12" height="1" rx="0.5" fill="#8BB4ED"/>
</g>
<g clip-path="url(#clip14_1619_7234)">
<rect x="269.047" y="263.275" width="16" height="2" rx="1" fill="#8BB4ED"/>
<rect x="271.047" y="267.275" width="12" height="1.09091" rx="0.545455" fill="#8BB4ED"/>
<rect x="271.047" y="269.275" width="12" height="1" rx="0.5" fill="#8BB4ED"/>
<rect x="271.047" y="271.275" width="12" height="1" rx="0.5" fill="#8BB4ED"/>
</g>
<g clip-path="url(#clip15_1619_7234)">
<rect x="291.047" y="263.275" width="16" height="2" rx="1" fill="#8BB4ED"/>
<rect x="293.047" y="267.275" width="12" height="1.09091" rx="0.545455" fill="#8BB4ED"/>
<rect x="293.047" y="269.275" width="12" height="1" rx="0.5" fill="#8BB4ED"/>
<rect x="293.047" y="271.275" width="12" height="1" rx="0.5" fill="#8BB4ED"/>
</g>
<rect x="270.547" y="280.275" width="3" height="2" rx="1" fill="#8BB4ED"/>
<rect x="275.547" y="280.275" width="3" height="2" rx="1" fill="#8BB4ED"/>
<rect x="280.547" y="280.275" width="3" height="2" rx="1" fill="#8BB4ED"/>
<rect x="200.547" y="200.275" width="153" height="11" rx="2" fill="#034AD8"/>
<rect x="208.047" y="202.775" width="16" height="6" rx="2" fill="#8BB4ED"/>
<rect x="252.047" y="204.775" width="16" height="2" rx="1" fill="#8BB4ED"/>
<rect x="273.047" y="204.775" width="16" height="2" rx="1" fill="#8BB4ED"/>
<rect x="294.047" y="204.775" width="16" height="2" rx="1" fill="#8BB4ED"/>
<rect x="338.047" y="204.775" width="3" height="2" rx="1" fill="#8BB4ED"/>
<rect x="343.047" y="204.775" width="3" height="2" rx="1" fill="#8BB4ED"/>
<rect opacity="0.8" x="210.547" y="219.275" width="21" height="3" rx="1.5" fill="white"/>
<rect opacity="0.8" x="210.547" y="225.275" width="39" height="28" rx="2" fill="#F4F4F4"/>
<rect opacity="0.8" x="257.547" y="225.275" width="39" height="28" rx="2" fill="#F4F4F4"/>
<rect opacity="0.8" x="304.547" y="225.275" width="39" height="28" rx="2" fill="#F4F4F4"/>
<g clip-path="url(#clip16_1619_7234)">
<path d="M230.328 234V232C230.328 230.9 229.428 230 228.328 230H222.328C221.228 230 220.328 230.9 220.328 232V246C220.328 247.1 221.228 248 222.328 248H238.328C239.428 248 240.328 247.1 240.328 246V236C240.328 234.9 239.428 234 238.328 234H230.328ZM224.328 246H222.328V244H224.328V246ZM224.328 242H222.328V240H224.328V242ZM224.328 238H222.328V236H224.328V238ZM224.328 234H222.328V232H224.328V234ZM228.328 246H226.328V244H228.328V246ZM228.328 242H226.328V240H228.328V242ZM228.328 238H226.328V236H228.328V238ZM228.328 234H226.328V232H228.328V234ZM237.328 246H230.328V244H232.328V242H230.328V240H232.328V238H230.328V236H237.328C237.878 236 238.328 236.45 238.328 237V245C238.328 245.55 237.878 246 237.328 246ZM236.328 238H234.328V240H236.328V238ZM236.328 242H234.328V244H236.328V242Z" fill="#CFCFCF"/>
</g>
<g clip-path="url(#clip17_1619_7234)">
<path d="M277.328 234V232C277.328 230.9 276.428 230 275.328 230H269.328C268.228 230 267.328 230.9 267.328 232V246C267.328 247.1 268.228 248 269.328 248H285.328C286.428 248 287.328 247.1 287.328 246V236C287.328 234.9 286.428 234 285.328 234H277.328ZM271.328 246H269.328V244H271.328V246ZM271.328 242H269.328V240H271.328V242ZM271.328 238H269.328V236H271.328V238ZM271.328 234H269.328V232H271.328V234ZM275.328 246H273.328V244H275.328V246ZM275.328 242H273.328V240H275.328V242ZM275.328 238H273.328V236H275.328V238ZM275.328 234H273.328V232H275.328V234ZM284.328 246H277.328V244H279.328V242H277.328V240H279.328V238H277.328V236H284.328C284.878 236 285.328 236.45 285.328 237V245C285.328 245.55 284.878 246 284.328 246ZM283.328 238H281.328V240H283.328V238ZM283.328 242H281.328V244H283.328V242Z" fill="#CFCFCF"/>
</g>
<g clip-path="url(#clip18_1619_7234)">
<path d="M324.328 234V232C324.328 230.9 323.428 230 322.328 230H316.328C315.228 230 314.328 230.9 314.328 232V246C314.328 247.1 315.228 248 316.328 248H332.328C333.428 248 334.328 247.1 334.328 246V236C334.328 234.9 333.428 234 332.328 234H324.328ZM318.328 246H316.328V244H318.328V246ZM318.328 242H316.328V240H318.328V242ZM318.328 238H316.328V236H318.328V238ZM318.328 234H316.328V232H318.328V234ZM322.328 246H320.328V244H322.328V246ZM322.328 242H320.328V240H322.328V242ZM322.328 238H320.328V236H322.328V238ZM322.328 234H320.328V232H322.328V234ZM331.328 246H324.328V244H326.328V242H324.328V240H326.328V238H324.328V236H331.328C331.878 236 332.328 236.45 332.328 237V245C332.328 245.55 331.878 246 331.328 246ZM330.328 238H328.328V240H330.328V238ZM330.328 242H328.328V244H330.328V242Z" fill="#CFCFCF"/>
</g>
</g>
<rect width="168.777" height="97.7253" rx="4.59884" transform="matrix(-1 -8.74228e-08 -8.74228e-08 1 172.773 190.275)" fill="white" fill-opacity="0.75"/>
<circle cx="1.60959" cy="1.60959" r="1.60959" transform="matrix(-1 -8.74228e-08 -8.74228e-08 1 21.8047 192)" fill="#CF352F"/>
<circle cx="1.60959" cy="1.60959" r="1.60959" transform="matrix(-1 -8.74228e-08 -8.74228e-08 1 17.5156 192)" fill="#F7E064"/>
<circle cx="1.60959" cy="1.60959" r="1.60959" transform="matrix(-1 -8.74228e-08 -8.74228e-08 1 13.2188 192)" fill="#38A413"/>
<g clip-path="url(#clip19_1619_7234)">
<rect x="6.77344" y="197.275" width="163" height="89" rx="2.3" fill="white"/>
<rect x="11.7734" y="261.275" width="153" height="22" rx="2" fill="#034AD8"/>
<g clip-path="url(#clip20_1619_7234)">
<rect x="58.2734" y="263.275" width="16" height="2" rx="1" fill="#8BB4ED"/>
<rect x="60.2734" y="267.275" width="12" height="1.09091" rx="0.545455" fill="#8BB4ED"/>
<rect x="60.2734" y="269.275" width="12" height="1" rx="0.5" fill="#8BB4ED"/>
<rect x="60.2734" y="271.275" width="12" height="1" rx="0.5" fill="#8BB4ED"/>
</g>
<g clip-path="url(#clip21_1619_7234)">
<rect x="80.2734" y="263.275" width="16" height="2" rx="1" fill="#8BB4ED"/>
<rect x="82.2734" y="267.275" width="12" height="1.09091" rx="0.545455" fill="#8BB4ED"/>
<rect x="82.2734" y="269.275" width="12" height="1" rx="0.5" fill="#8BB4ED"/>
<rect x="82.2734" y="271.275" width="12" height="1" rx="0.5" fill="#8BB4ED"/>
</g>
<g clip-path="url(#clip22_1619_7234)">
<rect x="102.273" y="263.275" width="16" height="2" rx="1" fill="#8BB4ED"/>
<rect x="104.273" y="267.275" width="12" height="1.09091" rx="0.545455" fill="#8BB4ED"/>
<rect x="104.273" y="269.275" width="12" height="1" rx="0.5" fill="#8BB4ED"/>
<rect x="104.273" y="271.275" width="12" height="1" rx="0.5" fill="#8BB4ED"/>
</g>
<rect x="81.7734" y="280.275" width="3" height="2" rx="1" fill="#8BB4ED"/>
<rect x="86.7734" y="280.275" width="3" height="2" rx="1" fill="#8BB4ED"/>
<rect x="91.7734" y="280.275" width="3" height="2" rx="1" fill="#8BB4ED"/>
<g clip-path="url(#clip23_1619_7234)">
<path d="M53.3281 234V232C53.3281 230.9 52.4281 230 51.3281 230H45.3281C44.2281 230 43.3281 230.9 43.3281 232V246C43.3281 247.1 44.2281 248 45.3281 248H61.3281C62.4281 248 63.3281 247.1 63.3281 246V236C63.3281 234.9 62.4281 234 61.3281 234H53.3281ZM47.3281 246H45.3281V244H47.3281V246ZM47.3281 242H45.3281V240H47.3281V242ZM47.3281 238H45.3281V236H47.3281V238ZM47.3281 234H45.3281V232H47.3281V234ZM51.3281 246H49.3281V244H51.3281V246ZM51.3281 242H49.3281V240H51.3281V242ZM51.3281 238H49.3281V236H51.3281V238ZM51.3281 234H49.3281V232H51.3281V234ZM60.3281 246H53.3281V244H55.3281V242H53.3281V240H55.3281V238H53.3281V236H60.3281C60.8781 236 61.3281 236.45 61.3281 237V245C61.3281 245.55 60.8781 246 60.3281 246ZM59.3281 238H57.3281V240H59.3281V238ZM59.3281 242H57.3281V244H59.3281V242Z" fill="#757575"/>
</g>
<g clip-path="url(#clip24_1619_7234)">
<path d="M124.328 234V232C124.328 230.9 123.428 230 122.328 230H116.328C115.228 230 114.328 230.9 114.328 232V246C114.328 247.1 115.228 248 116.328 248H132.328C133.428 248 134.328 247.1 134.328 246V236C134.328 234.9 133.428 234 132.328 234H124.328ZM118.328 246H116.328V244H118.328V246ZM118.328 242H116.328V240H118.328V242ZM118.328 238H116.328V236H118.328V238ZM118.328 234H116.328V232H118.328V234ZM122.328 246H120.328V244H122.328V246ZM122.328 242H120.328V240H122.328V242ZM122.328 238H120.328V236H122.328V238ZM122.328 234H120.328V232H122.328V234ZM131.328 246H124.328V244H126.328V242H124.328V240H126.328V238H124.328V236H131.328C131.878 236 132.328 236.45 132.328 237V245C132.328 245.55 131.878 246 131.328 246ZM130.328 238H128.328V240H130.328V238ZM130.328 242H128.328V244H130.328V242Z" fill="#757575"/>
</g>
<rect x="11.7734" y="200.275" width="153" height="11" rx="2" fill="#034AD8"/>
<rect x="19.2734" y="202.775" width="16" height="6" rx="2" fill="#8BB4ED"/>
<rect x="63.2734" y="204.775" width="16" height="2" rx="1" fill="#8BB4ED"/>
<rect x="84.2734" y="204.775" width="16" height="2" rx="1" fill="#8BB4ED"/>
<rect x="105.273" y="204.775" width="16" height="2" rx="1" fill="#8BB4ED"/>
<rect x="149.273" y="204.775" width="3" height="2" rx="1" fill="#8BB4ED"/>
<rect x="154.273" y="204.775" width="3" height="2" rx="1" fill="#8BB4ED"/>
<g opacity="0.8">
<rect x="11.7734" y="213.275" width="153" height="46" rx="2" fill="white"/>
<rect opacity="0.8" x="21.7734" y="219.275" width="21" height="3" rx="1.5" fill="white"/>
<rect opacity="0.8" x="21.7734" y="225.275" width="63" height="28" rx="2" fill="#EEEEEE"/>
<rect opacity="0.8" x="92.7734" y="225.275" width="63" height="28" rx="2" fill="#EEEEEE"/>
</g>
</g>
<path d="M279.219 101.725C279.219 100.897 278.547 100.225 277.719 100.225C276.89 100.225 276.219 100.897 276.219 101.725H279.219ZM276.219 101.725V186.275H279.219V101.725H276.219Z" fill="#8BB4ED"/>
<path d="M279.219 101.725C279.219 100.897 278.547 100.225 277.719 100.225C276.89 100.225 276.219 100.897 276.219 101.725H279.219ZM276.219 101.725V120H279.219V101.725H276.219ZM301.719 145.5H441.941V142.5H301.719V145.5ZM464.441 168V186.275H467.441V168H464.441ZM441.941 145.5C454.368 145.5 464.441 155.574 464.441 168H467.441C467.441 153.917 456.025 142.5 441.941 142.5V145.5ZM276.219 120C276.219 134.083 287.635 145.5 301.719 145.5V142.5C289.292 142.5 279.219 132.426 279.219 120H276.219Z" fill="#8BB4ED"/>
<path d="M279.215 101.725C279.215 100.897 278.543 100.225 277.715 100.225C276.886 100.225 276.215 100.897 276.215 101.725H279.215ZM276.215 101.725V120H279.215V101.725H276.215ZM253.715 142.5H112.383V145.5H253.715V142.5ZM86.8828 168V186.275H89.8828V168H86.8828ZM112.383 142.5C98.2995 142.5 86.8828 153.917 86.8828 168H89.8828C89.8828 155.574 99.9564 145.5 112.383 145.5V142.5ZM276.215 120C276.215 132.426 266.141 142.5 253.715 142.5V145.5C267.798 145.5 279.215 134.083 279.215 120H276.215Z" fill="#8BB4ED"/>
</g>
<defs>
<filter id="filter0_d_1619_7234" x="0" y="0" width="554.328" height="296" filterUnits="userSpaceOnUse" color-interpolation-filters="sRGB">
<feFlood flood-opacity="0" result="BackgroundImageFix"/>
<feColorMatrix in="SourceAlpha" type="matrix" values="0 0 0 0 0 0 0 0 0 0 0 0 0 0 0 0 0 0 127 0" result="hardAlpha"/>
<feOffset dy="4"/>
<feGaussianBlur stdDeviation="2"/>
<feComposite in2="hardAlpha" operator="out"/>
<feColorMatrix type="matrix" values="0 0 0 0 0 0 0 0 0 0 0 0 0 0 0 0 0 0 0.25 0"/>
<feBlend mode="normal" in2="BackgroundImageFix" result="effect1_dropShadow_1619_7234"/>
<feBlend mode="normal" in="SourceGraphic" in2="effect1_dropShadow_1619_7234" result="shape"/>
</filter>
<clipPath id="clip0_1619_7234">
<rect width="163" height="89" fill="white" transform="translate(196.328 7)"/>
</clipPath>
<clipPath id="clip1_1619_7234">
<rect width="16" height="9" fill="white" transform="translate(247.828 73)"/>
</clipPath>
<clipPath id="clip2_1619_7234">
<rect width="16" height="9" fill="white" transform="translate(269.828 73)"/>
</clipPath>
<clipPath id="clip3_1619_7234">
<rect width="16" height="9" fill="white" transform="translate(291.828 73)"/>
</clipPath>
<clipPath id="clip4_1619_7234">
<rect width="24" height="24" fill="white" transform="translate(217.328 36)"/>
</clipPath>
<clipPath id="clip5_1619_7234">
<rect width="24" height="24" fill="white" transform="translate(266.328 36)"/>
</clipPath>
<clipPath id="clip6_1619_7234">
<rect width="24" height="24" fill="white" transform="translate(315.328 36)"/>
</clipPath>
<clipPath id="clip7_1619_7234">
<rect width="163" height="89" fill="white" transform="translate(384.328 197.275)"/>
</clipPath>
<clipPath id="clip8_1619_7234">
<rect width="16" height="9" fill="white" transform="translate(435.828 263.275)"/>
</clipPath>
<clipPath id="clip9_1619_7234">
<rect width="16" height="9" fill="white" transform="translate(457.828 263.275)"/>
</clipPath>
<clipPath id="clip10_1619_7234">
<rect width="16" height="9" fill="white" transform="translate(479.828 263.275)"/>
</clipPath>
<clipPath id="clip11_1619_7234">
<rect width="24" height="24" fill="white" transform="translate(405.328 227)"/>
</clipPath>
<clipPath id="clip12_1619_7234">
<rect width="163" height="89" fill="white" transform="translate(195.547 197.275)"/>
</clipPath>
<clipPath id="clip13_1619_7234">
<rect width="16" height="9" fill="white" transform="translate(247.047 263.275)"/>
</clipPath>
<clipPath id="clip14_1619_7234">
<rect width="16" height="9" fill="white" transform="translate(269.047 263.275)"/>
</clipPath>
<clipPath id="clip15_1619_7234">
<rect width="16" height="9" fill="white" transform="translate(291.047 263.275)"/>
</clipPath>
<clipPath id="clip16_1619_7234">
<rect width="24" height="24" fill="white" transform="translate(218.328 227)"/>
</clipPath>
<clipPath id="clip17_1619_7234">
<rect width="24" height="24" fill="white" transform="translate(265.328 227)"/>
</clipPath>
<clipPath id="clip18_1619_7234">
<rect width="24" height="24" fill="white" transform="translate(312.328 227)"/>
</clipPath>
<clipPath id="clip19_1619_7234">
<rect width="163" height="89" fill="white" transform="translate(6.77344 197.275)"/>
</clipPath>
<clipPath id="clip20_1619_7234">
<rect width="16" height="9" fill="white" transform="translate(58.2734 263.275)"/>
</clipPath>
<clipPath id="clip21_1619_7234">
<rect width="16" height="9" fill="white" transform="translate(80.2734 263.275)"/>
</clipPath>
<clipPath id="clip22_1619_7234">
<rect width="16" height="9" fill="white" transform="translate(102.273 263.275)"/>
</clipPath>
<clipPath id="clip23_1619_7234">
<rect width="24" height="24" fill="white" transform="translate(41.3281 227)"/>
</clipPath>
<clipPath id="clip24_1619_7234">
<rect width="24" height="24" fill="white" transform="translate(112.328 227)"/>
</clipPath>
</defs>
</svg>
