<svg width="969" height="710" viewBox="0 0 969 710" fill="none" xmlns="http://www.w3.org/2000/svg">
<g filter="url(#filter0_d_1619_6970)">
<rect x="320.328" y="208" width="168.777" height="97.7253" rx="4.59884" fill="white" fill-opacity="0.75" shape-rendering="crispEdges"/>
<circle cx="329.524" cy="211.679" r="1.60959" fill="#CF352F"/>
<circle cx="333.813" cy="211.679" r="1.60959" fill="#F7E064"/>
<circle cx="338.11" cy="211.679" r="1.60959" fill="#38A413"/>
<g clip-path="url(#clip0_1619_6970)">
<rect x="323.328" y="215" width="163" height="89" rx="2.3" fill="white"/>
<rect x="328.328" y="279" width="153" height="22" rx="2" fill="#034AD8"/>
<g clip-path="url(#clip1_1619_6970)">
<rect x="374.828" y="281" width="16" height="2" rx="1" fill="#8BB4ED"/>
<rect x="376.828" y="285" width="12" height="1.09091" rx="0.545455" fill="#8BB4ED"/>
<rect x="376.828" y="287" width="12" height="1" rx="0.5" fill="#8BB4ED"/>
<rect x="376.828" y="289" width="12" height="1" rx="0.5" fill="#8BB4ED"/>
</g>
<g clip-path="url(#clip2_1619_6970)">
<rect x="396.828" y="281" width="16" height="2" rx="1" fill="#8BB4ED"/>
<rect x="398.828" y="285" width="12" height="1.09091" rx="0.545455" fill="#8BB4ED"/>
<rect x="398.828" y="287" width="12" height="1" rx="0.5" fill="#8BB4ED"/>
<rect x="398.828" y="289" width="12" height="1" rx="0.5" fill="#8BB4ED"/>
</g>
<g clip-path="url(#clip3_1619_6970)">
<rect x="418.828" y="281" width="16" height="2" rx="1" fill="#8BB4ED"/>
<rect x="420.828" y="285" width="12" height="1.09091" rx="0.545455" fill="#8BB4ED"/>
<rect x="420.828" y="287" width="12" height="1" rx="0.5" fill="#8BB4ED"/>
<rect x="420.828" y="289" width="12" height="1" rx="0.5" fill="#8BB4ED"/>
</g>
<rect x="398.328" y="298" width="3" height="2" rx="1" fill="#8BB4ED"/>
<rect x="403.328" y="298" width="3" height="2" rx="1" fill="#8BB4ED"/>
<rect x="408.328" y="298" width="3" height="2" rx="1" fill="#8BB4ED"/>
<rect x="328.328" y="218" width="153" height="11" rx="2" fill="#034AD8"/>
<rect x="335.828" y="220.5" width="16" height="6" rx="2" fill="#8BB4ED"/>
<rect x="379.828" y="222.5" width="16" height="2" rx="1" fill="#8BB4ED"/>
<rect x="400.828" y="222.5" width="16" height="2" rx="1" fill="#8BB4ED"/>
<rect x="421.828" y="222.5" width="16" height="2" rx="1" fill="#8BB4ED"/>
<rect x="465.828" y="222.5" width="3" height="2" rx="1" fill="#8BB4ED"/>
<rect x="470.828" y="222.5" width="3" height="2" rx="1" fill="#8BB4ED"/>
<rect x="336.328" y="242" width="39" height="28" rx="2" fill="#EEEEEE"/>
<g clip-path="url(#clip4_1619_6970)">
<path d="M365.328 263V249C365.328 247.9 364.428 247 363.328 247H349.328C348.228 247 347.328 247.9 347.328 249V263C347.328 264.1 348.228 265 349.328 265H363.328C364.428 265 365.328 264.1 365.328 263ZM353.228 257.98L355.328 260.51L358.428 256.52C358.628 256.26 359.028 256.26 359.228 256.53L362.738 261.21C362.988 261.54 362.748 262.01 362.338 262.01H350.348C349.928 262.01 349.698 261.53 349.958 261.2L352.448 258C352.638 257.74 353.018 257.73 353.228 257.98Z" fill="#CFCFCF"/>
</g>
<rect x="385.328" y="242" width="39" height="28" rx="2" fill="#EEEEEE"/>
<g clip-path="url(#clip5_1619_6970)">
<path d="M405.328 251V249C405.328 247.9 404.428 247 403.328 247H397.328C396.228 247 395.328 247.9 395.328 249V263C395.328 264.1 396.228 265 397.328 265H413.328C414.428 265 415.328 264.1 415.328 263V253C415.328 251.9 414.428 251 413.328 251H405.328ZM399.328 263H397.328V261H399.328V263ZM399.328 259H397.328V257H399.328V259ZM399.328 255H397.328V253H399.328V255ZM399.328 251H397.328V249H399.328V251ZM403.328 263H401.328V261H403.328V263ZM403.328 259H401.328V257H403.328V259ZM403.328 255H401.328V253H403.328V255ZM403.328 251H401.328V249H403.328V251ZM412.328 263H405.328V261H407.328V259H405.328V257H407.328V255H405.328V253H412.328C412.878 253 413.328 253.45 413.328 254V262C413.328 262.55 412.878 263 412.328 263ZM411.328 255H409.328V257H411.328V255ZM411.328 259H409.328V261H411.328V259Z" fill="#CFCFCF"/>
</g>
<rect x="434.328" y="242" width="39" height="28" rx="2" fill="#EEEEEE"/>
<g clip-path="url(#clip6_1619_6970)">
<path d="M458.328 255C459.988 255 461.318 253.66 461.318 252C461.318 250.34 459.988 249 458.328 249C456.668 249 455.328 250.34 455.328 252C455.328 253.66 456.668 255 458.328 255ZM450.328 255C451.988 255 453.318 253.66 453.318 252C453.318 250.34 451.988 249 450.328 249C448.668 249 447.328 250.34 447.328 252C447.328 253.66 448.668 255 450.328 255ZM450.328 257C447.998 257 443.328 258.17 443.328 260.5V262C443.328 262.55 443.778 263 444.328 263H456.328C456.878 263 457.328 262.55 457.328 262V260.5C457.328 258.17 452.658 257 450.328 257ZM458.328 257C458.038 257 457.708 257.02 457.358 257.05C457.378 257.06 457.388 257.08 457.398 257.09C458.538 257.92 459.328 259.03 459.328 260.5V262C459.328 262.35 459.258 262.69 459.148 263H464.328C464.878 263 465.328 262.55 465.328 262V260.5C465.328 258.17 460.658 257 458.328 257Z" fill="#CFCFCF"/>
</g>
<rect opacity="0.8" x="336.328" y="237" width="21" height="3" rx="1.5" fill="#CFCFCF"/>
<rect opacity="0.8" x="385.328" y="237" width="21" height="3" rx="1.5" fill="#CFCFCF"/>
<rect opacity="0.8" x="434.328" y="237" width="21" height="3" rx="1.5" fill="#CFCFCF"/>
</g>
</g>
<g filter="url(#filter1_d_1619_6970)">
<rect width="168.777" height="97.7253" rx="4.59884" transform="matrix(-1 -8.74228e-08 -8.74228e-08 1 677.328 398.275)" fill="white" fill-opacity="0.75" shape-rendering="crispEdges"/>
<circle cx="1.60959" cy="1.60959" r="1.60959" transform="matrix(-1 -8.74228e-08 -8.74228e-08 1 525.805 401)" fill="#CF352F"/>
<circle cx="1.60959" cy="1.60959" r="1.60959" transform="matrix(-1 -8.74228e-08 -8.74228e-08 1 521.516 401)" fill="#F7E064"/>
<circle cx="1.60959" cy="1.60959" r="1.60959" transform="matrix(-1 -8.74228e-08 -8.74228e-08 1 517.219 401)" fill="#38A413"/>
<g clip-path="url(#clip7_1619_6970)">
<rect x="511.328" y="405" width="163" height="89" rx="2.3" fill="white"/>
<rect x="516.328" y="469.275" width="153" height="22" rx="2" fill="#034AD8"/>
<g clip-path="url(#clip8_1619_6970)">
<rect x="562.828" y="471.275" width="16" height="2" rx="1" fill="#8BB4ED"/>
<rect x="564.828" y="475.275" width="12" height="1.09091" rx="0.545455" fill="#8BB4ED"/>
<rect x="564.828" y="477.275" width="12" height="1" rx="0.5" fill="#8BB4ED"/>
<rect x="564.828" y="479.275" width="12" height="1" rx="0.5" fill="#8BB4ED"/>
</g>
<g clip-path="url(#clip9_1619_6970)">
<rect x="584.828" y="471.275" width="16" height="2" rx="1" fill="#8BB4ED"/>
<rect x="586.828" y="475.275" width="12" height="1.09091" rx="0.545455" fill="#8BB4ED"/>
<rect x="586.828" y="477.275" width="12" height="1" rx="0.5" fill="#8BB4ED"/>
<rect x="586.828" y="479.275" width="12" height="1" rx="0.5" fill="#8BB4ED"/>
</g>
<g clip-path="url(#clip10_1619_6970)">
<rect x="606.828" y="471.275" width="16" height="2" rx="1" fill="#8BB4ED"/>
<rect x="608.828" y="475.275" width="12" height="1.09091" rx="0.545455" fill="#8BB4ED"/>
<rect x="608.828" y="477.275" width="12" height="1" rx="0.5" fill="#8BB4ED"/>
<rect x="608.828" y="479.275" width="12" height="1" rx="0.5" fill="#8BB4ED"/>
</g>
<rect x="586.328" y="488.275" width="3" height="2" rx="1" fill="#8BB4ED"/>
<rect x="591.328" y="488.275" width="3" height="2" rx="1" fill="#8BB4ED"/>
<rect x="596.328" y="488.275" width="3" height="2" rx="1" fill="#8BB4ED"/>
<rect x="516.328" y="408.275" width="153" height="11" rx="2" fill="#034AD8"/>
<rect x="523.828" y="410.775" width="16" height="6" rx="2" fill="#8BB4ED"/>
<rect x="567.828" y="412.775" width="16" height="2" rx="1" fill="#8BB4ED"/>
<rect x="588.828" y="412.775" width="16" height="2" rx="1" fill="#8BB4ED"/>
<rect x="609.828" y="412.775" width="16" height="2" rx="1" fill="#8BB4ED"/>
<rect x="653.828" y="412.775" width="3" height="2" rx="1" fill="#8BB4ED"/>
<rect x="658.828" y="412.775" width="3" height="2" rx="1" fill="#8BB4ED"/>
<rect opacity="0.8" x="524.328" y="433" width="138" height="28" rx="2" fill="#F4F4F4"/>
<g clip-path="url(#clip11_1619_6970)">
<path d="M544.328 442V440C544.328 438.9 543.428 438 542.328 438H536.328C535.228 438 534.328 438.9 534.328 440V454C534.328 455.1 535.228 456 536.328 456H552.328C553.428 456 554.328 455.1 554.328 454V444C554.328 442.9 553.428 442 552.328 442H544.328ZM538.328 454H536.328V452H538.328V454ZM538.328 450H536.328V448H538.328V450ZM538.328 446H536.328V444H538.328V446ZM538.328 442H536.328V440H538.328V442ZM542.328 454H540.328V452H542.328V454ZM542.328 450H540.328V448H542.328V450ZM542.328 446H540.328V444H542.328V446ZM542.328 442H540.328V440H542.328V442ZM551.328 454H544.328V452H546.328V450H544.328V448H546.328V446H544.328V444H551.328C551.878 444 552.328 444.45 552.328 445V453C552.328 453.55 551.878 454 551.328 454ZM550.328 446H548.328V448H550.328V446ZM550.328 450H548.328V452H550.328V450Z" fill="#CFCFCF"/>
</g>
</g>
</g>
<g filter="url(#filter2_d_1619_6970)">
<rect width="168.777" height="97.7253" rx="4.59884" transform="matrix(-1 -8.74228e-08 -8.74228e-08 1 488.547 398.275)" fill="white" fill-opacity="0.75" shape-rendering="crispEdges"/>
<circle cx="1.60959" cy="1.60959" r="1.60959" transform="matrix(-1 -8.74228e-08 -8.74228e-08 1 336.805 400)" fill="#CF352F"/>
<circle cx="1.60959" cy="1.60959" r="1.60959" transform="matrix(-1 -8.74228e-08 -8.74228e-08 1 332.516 400)" fill="#F7E064"/>
<circle cx="1.60959" cy="1.60959" r="1.60959" transform="matrix(-1 -8.74228e-08 -8.74228e-08 1 328.219 400)" fill="#38A413"/>
<g clip-path="url(#clip12_1619_6970)">
<rect x="322.547" y="405.275" width="163" height="89" rx="2.3" fill="white"/>
<rect x="327.547" y="469.275" width="153" height="22" rx="2" fill="#034AD8"/>
<g clip-path="url(#clip13_1619_6970)">
<rect x="374.047" y="471.275" width="16" height="2" rx="1" fill="#8BB4ED"/>
<rect x="376.047" y="475.275" width="12" height="1.09091" rx="0.545455" fill="#8BB4ED"/>
<rect x="376.047" y="477.275" width="12" height="1" rx="0.5" fill="#8BB4ED"/>
<rect x="376.047" y="479.275" width="12" height="1" rx="0.5" fill="#8BB4ED"/>
</g>
<g clip-path="url(#clip14_1619_6970)">
<rect x="396.047" y="471.275" width="16" height="2" rx="1" fill="#8BB4ED"/>
<rect x="398.047" y="475.275" width="12" height="1.09091" rx="0.545455" fill="#8BB4ED"/>
<rect x="398.047" y="477.275" width="12" height="1" rx="0.5" fill="#8BB4ED"/>
<rect x="398.047" y="479.275" width="12" height="1" rx="0.5" fill="#8BB4ED"/>
</g>
<g clip-path="url(#clip15_1619_6970)">
<rect x="418.047" y="471.275" width="16" height="2" rx="1" fill="#8BB4ED"/>
<rect x="420.047" y="475.275" width="12" height="1.09091" rx="0.545455" fill="#8BB4ED"/>
<rect x="420.047" y="477.275" width="12" height="1" rx="0.5" fill="#8BB4ED"/>
<rect x="420.047" y="479.275" width="12" height="1" rx="0.5" fill="#8BB4ED"/>
</g>
<rect x="397.547" y="488.275" width="3" height="2" rx="1" fill="#8BB4ED"/>
<rect x="402.547" y="488.275" width="3" height="2" rx="1" fill="#8BB4ED"/>
<rect x="407.547" y="488.275" width="3" height="2" rx="1" fill="#8BB4ED"/>
<rect x="327.547" y="408.275" width="153" height="11" rx="2" fill="#034AD8"/>
<rect x="335.047" y="410.775" width="16" height="6" rx="2" fill="#8BB4ED"/>
<rect x="379.047" y="412.775" width="16" height="2" rx="1" fill="#8BB4ED"/>
<rect x="400.047" y="412.775" width="16" height="2" rx="1" fill="#8BB4ED"/>
<rect x="421.047" y="412.775" width="16" height="2" rx="1" fill="#8BB4ED"/>
<rect x="465.047" y="412.775" width="3" height="2" rx="1" fill="#8BB4ED"/>
<rect x="470.047" y="412.775" width="3" height="2" rx="1" fill="#8BB4ED"/>
<rect opacity="0.8" x="337.547" y="427.275" width="21" height="3" rx="1.5" fill="white"/>
<rect opacity="0.8" x="337.547" y="433.275" width="39" height="28" rx="2" fill="#F4F4F4"/>
<rect opacity="0.8" x="384.547" y="433.275" width="39" height="28" rx="2" fill="#F4F4F4"/>
<rect opacity="0.8" x="431.547" y="433.275" width="39" height="28" rx="2" fill="#F4F4F4"/>
<g clip-path="url(#clip16_1619_6970)">
<path d="M357.328 442V440C357.328 438.9 356.428 438 355.328 438H349.328C348.228 438 347.328 438.9 347.328 440V454C347.328 455.1 348.228 456 349.328 456H365.328C366.428 456 367.328 455.1 367.328 454V444C367.328 442.9 366.428 442 365.328 442H357.328ZM351.328 454H349.328V452H351.328V454ZM351.328 450H349.328V448H351.328V450ZM351.328 446H349.328V444H351.328V446ZM351.328 442H349.328V440H351.328V442ZM355.328 454H353.328V452H355.328V454ZM355.328 450H353.328V448H355.328V450ZM355.328 446H353.328V444H355.328V446ZM355.328 442H353.328V440H355.328V442ZM364.328 454H357.328V452H359.328V450H357.328V448H359.328V446H357.328V444H364.328C364.878 444 365.328 444.45 365.328 445V453C365.328 453.55 364.878 454 364.328 454ZM363.328 446H361.328V448H363.328V446ZM363.328 450H361.328V452H363.328V450Z" fill="#CFCFCF"/>
</g>
<g clip-path="url(#clip17_1619_6970)">
<path d="M404.328 442V440C404.328 438.9 403.428 438 402.328 438H396.328C395.228 438 394.328 438.9 394.328 440V454C394.328 455.1 395.228 456 396.328 456H412.328C413.428 456 414.328 455.1 414.328 454V444C414.328 442.9 413.428 442 412.328 442H404.328ZM398.328 454H396.328V452H398.328V454ZM398.328 450H396.328V448H398.328V450ZM398.328 446H396.328V444H398.328V446ZM398.328 442H396.328V440H398.328V442ZM402.328 454H400.328V452H402.328V454ZM402.328 450H400.328V448H402.328V450ZM402.328 446H400.328V444H402.328V446ZM402.328 442H400.328V440H402.328V442ZM411.328 454H404.328V452H406.328V450H404.328V448H406.328V446H404.328V444H411.328C411.878 444 412.328 444.45 412.328 445V453C412.328 453.55 411.878 454 411.328 454ZM410.328 446H408.328V448H410.328V446ZM410.328 450H408.328V452H410.328V450Z" fill="#CFCFCF"/>
</g>
<g clip-path="url(#clip18_1619_6970)">
<path d="M451.328 442V440C451.328 438.9 450.428 438 449.328 438H443.328C442.228 438 441.328 438.9 441.328 440V454C441.328 455.1 442.228 456 443.328 456H459.328C460.428 456 461.328 455.1 461.328 454V444C461.328 442.9 460.428 442 459.328 442H451.328ZM445.328 454H443.328V452H445.328V454ZM445.328 450H443.328V448H445.328V450ZM445.328 446H443.328V444H445.328V446ZM445.328 442H443.328V440H445.328V442ZM449.328 454H447.328V452H449.328V454ZM449.328 450H447.328V448H449.328V450ZM449.328 446H447.328V444H449.328V446ZM449.328 442H447.328V440H449.328V442ZM458.328 454H451.328V452H453.328V450H451.328V448H453.328V446H451.328V444H458.328C458.878 444 459.328 444.45 459.328 445V453C459.328 453.55 458.878 454 458.328 454ZM457.328 446H455.328V448H457.328V446ZM457.328 450H455.328V452H457.328V450Z" fill="#CFCFCF"/>
</g>
</g>
</g>
<g filter="url(#filter3_d_1619_6970)">
<rect width="168.777" height="97.7253" rx="4.59884" transform="matrix(-1 -8.74228e-08 -8.74228e-08 1 299.773 398.275)" fill="white" fill-opacity="0.75" shape-rendering="crispEdges"/>
<circle cx="1.60959" cy="1.60959" r="1.60959" transform="matrix(-1 -8.74228e-08 -8.74228e-08 1 148.805 400)" fill="#CF352F"/>
<circle cx="1.60959" cy="1.60959" r="1.60959" transform="matrix(-1 -8.74228e-08 -8.74228e-08 1 144.516 400)" fill="#F7E064"/>
<circle cx="1.60959" cy="1.60959" r="1.60959" transform="matrix(-1 -8.74228e-08 -8.74228e-08 1 140.219 400)" fill="#38A413"/>
<g clip-path="url(#clip19_1619_6970)">
<rect x="133.773" y="405.275" width="163" height="89" rx="2.3" fill="white"/>
<rect x="138.773" y="469.275" width="153" height="22" rx="2" fill="#034AD8"/>
<g clip-path="url(#clip20_1619_6970)">
<rect x="185.273" y="471.275" width="16" height="2" rx="1" fill="#8BB4ED"/>
<rect x="187.273" y="475.275" width="12" height="1.09091" rx="0.545455" fill="#8BB4ED"/>
<rect x="187.273" y="477.275" width="12" height="1" rx="0.5" fill="#8BB4ED"/>
<rect x="187.273" y="479.275" width="12" height="1" rx="0.5" fill="#8BB4ED"/>
</g>
<g clip-path="url(#clip21_1619_6970)">
<rect x="207.273" y="471.275" width="16" height="2" rx="1" fill="#8BB4ED"/>
<rect x="209.273" y="475.275" width="12" height="1.09091" rx="0.545455" fill="#8BB4ED"/>
<rect x="209.273" y="477.275" width="12" height="1" rx="0.5" fill="#8BB4ED"/>
<rect x="209.273" y="479.275" width="12" height="1" rx="0.5" fill="#8BB4ED"/>
</g>
<g clip-path="url(#clip22_1619_6970)">
<rect x="229.273" y="471.275" width="16" height="2" rx="1" fill="#8BB4ED"/>
<rect x="231.273" y="475.275" width="12" height="1.09091" rx="0.545455" fill="#8BB4ED"/>
<rect x="231.273" y="477.275" width="12" height="1" rx="0.5" fill="#8BB4ED"/>
<rect x="231.273" y="479.275" width="12" height="1" rx="0.5" fill="#8BB4ED"/>
</g>
<rect x="208.773" y="488.275" width="3" height="2" rx="1" fill="#8BB4ED"/>
<rect x="213.773" y="488.275" width="3" height="2" rx="1" fill="#8BB4ED"/>
<rect x="218.773" y="488.275" width="3" height="2" rx="1" fill="#8BB4ED"/>
<g clip-path="url(#clip23_1619_6970)">
<path d="M180.328 442V440C180.328 438.9 179.428 438 178.328 438H172.328C171.228 438 170.328 438.9 170.328 440V454C170.328 455.1 171.228 456 172.328 456H188.328C189.428 456 190.328 455.1 190.328 454V444C190.328 442.9 189.428 442 188.328 442H180.328ZM174.328 454H172.328V452H174.328V454ZM174.328 450H172.328V448H174.328V450ZM174.328 446H172.328V444H174.328V446ZM174.328 442H172.328V440H174.328V442ZM178.328 454H176.328V452H178.328V454ZM178.328 450H176.328V448H178.328V450ZM178.328 446H176.328V444H178.328V446ZM178.328 442H176.328V440H178.328V442ZM187.328 454H180.328V452H182.328V450H180.328V448H182.328V446H180.328V444H187.328C187.878 444 188.328 444.45 188.328 445V453C188.328 453.55 187.878 454 187.328 454ZM186.328 446H184.328V448H186.328V446ZM186.328 450H184.328V452H186.328V450Z" fill="#757575"/>
</g>
<g clip-path="url(#clip24_1619_6970)">
<path d="M251.328 442V440C251.328 438.9 250.428 438 249.328 438H243.328C242.228 438 241.328 438.9 241.328 440V454C241.328 455.1 242.228 456 243.328 456H259.328C260.428 456 261.328 455.1 261.328 454V444C261.328 442.9 260.428 442 259.328 442H251.328ZM245.328 454H243.328V452H245.328V454ZM245.328 450H243.328V448H245.328V450ZM245.328 446H243.328V444H245.328V446ZM245.328 442H243.328V440H245.328V442ZM249.328 454H247.328V452H249.328V454ZM249.328 450H247.328V448H249.328V450ZM249.328 446H247.328V444H249.328V446ZM249.328 442H247.328V440H249.328V442ZM258.328 454H251.328V452H253.328V450H251.328V448H253.328V446H251.328V444H258.328C258.878 444 259.328 444.45 259.328 445V453C259.328 453.55 258.878 454 258.328 454ZM257.328 446H255.328V448H257.328V446ZM257.328 450H255.328V452H257.328V450Z" fill="#757575"/>
</g>
<rect x="138.773" y="408.275" width="153" height="11" rx="2" fill="#034AD8"/>
<rect x="146.273" y="410.775" width="16" height="6" rx="2" fill="#8BB4ED"/>
<rect x="190.273" y="412.775" width="16" height="2" rx="1" fill="#8BB4ED"/>
<rect x="211.273" y="412.775" width="16" height="2" rx="1" fill="#8BB4ED"/>
<rect x="232.273" y="412.775" width="16" height="2" rx="1" fill="#8BB4ED"/>
<rect x="276.273" y="412.775" width="3" height="2" rx="1" fill="#8BB4ED"/>
<rect x="281.273" y="412.775" width="3" height="2" rx="1" fill="#8BB4ED"/>
<g opacity="0.8">
<rect x="138.773" y="421.275" width="153" height="46" rx="2" fill="white"/>
<rect opacity="0.8" x="148.773" y="427.275" width="21" height="3" rx="1.5" fill="white"/>
<rect opacity="0.8" x="148.773" y="433.275" width="63" height="28" rx="2" fill="#EEEEEE"/>
<rect opacity="0.8" x="219.773" y="433.275" width="63" height="28" rx="2" fill="#EEEEEE"/>
</g>
</g>
</g>
<path d="M406.211 309.725C406.211 308.897 405.539 308.225 404.711 308.225C403.883 308.225 403.211 308.897 403.211 309.725H406.211ZM403.211 309.725V394.275H406.211V309.725H403.211Z" fill="#8BB4ED"/>
<path d="M406.211 309.725C406.211 308.897 405.539 308.225 404.711 308.225C403.883 308.225 403.211 308.897 403.211 309.725H406.211ZM403.211 309.725V328H406.211V309.725H403.211ZM428.711 353.5H568.934V350.5H428.711V353.5ZM591.434 376V394.275H594.434V376H591.434ZM568.934 353.5C581.36 353.5 591.434 363.574 591.434 376H594.434C594.434 361.917 583.017 350.5 568.934 350.5V353.5ZM403.211 328C403.211 342.083 414.628 353.5 428.711 353.5V350.5C416.285 350.5 406.211 340.426 406.211 328H403.211Z" fill="#8BB4ED"/>
<path d="M406.215 309.725C406.215 308.897 405.543 308.225 404.715 308.225C403.886 308.225 403.215 308.897 403.215 309.725H406.215ZM403.215 309.725V328H406.215V309.725H403.215ZM380.715 350.5H239.383V353.5H380.715V350.5ZM213.883 376V394.275H216.883V376H213.883ZM239.383 350.5C225.3 350.5 213.883 361.917 213.883 376H216.883C216.883 363.574 226.956 353.5 239.383 353.5V350.5ZM403.215 328C403.215 340.426 393.141 350.5 380.715 350.5V353.5C394.798 353.5 406.215 342.083 406.215 328H403.215Z" fill="#8BB4ED"/>
<defs>
<filter id="filter0_d_1619_6970" x="189.806" y="0.75503" width="590.003" height="518.955" filterUnits="userSpaceOnUse" color-interpolation-filters="sRGB">
<feFlood flood-opacity="0" result="BackgroundImageFix"/>
<feColorMatrix in="SourceAlpha" type="matrix" values="0 0 0 0 0 0 0 0 0 0 0 0 0 0 0 0 0 0 127 0" result="hardAlpha"/>
<feOffset dx="80.0926" dy="3.36984"/>
<feGaussianBlur stdDeviation="105.307"/>
<feComposite in2="hardAlpha" operator="out"/>
<feColorMatrix type="matrix" values="0 0 0 0 0.0705882 0 0 0 0 0.0705882 0 0 0 0 0.0705882 0 0 0 0.25 0"/>
<feBlend mode="normal" in2="BackgroundImageFix" result="effect1_dropShadow_1619_6970"/>
<feBlend mode="normal" in="SourceGraphic" in2="effect1_dropShadow_1619_6970" result="shape"/>
</filter>
<filter id="filter1_d_1619_6970" x="378.032" y="191.03" width="590.003" height="518.955" filterUnits="userSpaceOnUse" color-interpolation-filters="sRGB">
<feFlood flood-opacity="0" result="BackgroundImageFix"/>
<feColorMatrix in="SourceAlpha" type="matrix" values="0 0 0 0 0 0 0 0 0 0 0 0 0 0 0 0 0 0 127 0" result="hardAlpha"/>
<feOffset dx="80.0926" dy="3.36984"/>
<feGaussianBlur stdDeviation="105.307"/>
<feComposite in2="hardAlpha" operator="out"/>
<feColorMatrix type="matrix" values="0 0 0 0 0.0705882 0 0 0 0 0.0705882 0 0 0 0 0.0705882 0 0 0 0.25 0"/>
<feBlend mode="normal" in2="BackgroundImageFix" result="effect1_dropShadow_1619_6970"/>
<feBlend mode="normal" in="SourceGraphic" in2="effect1_dropShadow_1619_6970" result="shape"/>
</filter>
<filter id="filter2_d_1619_6970" x="189.251" y="191.03" width="590.003" height="518.955" filterUnits="userSpaceOnUse" color-interpolation-filters="sRGB">
<feFlood flood-opacity="0" result="BackgroundImageFix"/>
<feColorMatrix in="SourceAlpha" type="matrix" values="0 0 0 0 0 0 0 0 0 0 0 0 0 0 0 0 0 0 127 0" result="hardAlpha"/>
<feOffset dx="80.0926" dy="3.36984"/>
<feGaussianBlur stdDeviation="105.307"/>
<feComposite in2="hardAlpha" operator="out"/>
<feColorMatrix type="matrix" values="0 0 0 0 0.0705882 0 0 0 0 0.0705882 0 0 0 0 0.0705882 0 0 0 0.25 0"/>
<feBlend mode="normal" in2="BackgroundImageFix" result="effect1_dropShadow_1619_6970"/>
<feBlend mode="normal" in="SourceGraphic" in2="effect1_dropShadow_1619_6970" result="shape"/>
</filter>
<filter id="filter3_d_1619_6970" x="0.477791" y="191.03" width="590.003" height="518.955" filterUnits="userSpaceOnUse" color-interpolation-filters="sRGB">
<feFlood flood-opacity="0" result="BackgroundImageFix"/>
<feColorMatrix in="SourceAlpha" type="matrix" values="0 0 0 0 0 0 0 0 0 0 0 0 0 0 0 0 0 0 127 0" result="hardAlpha"/>
<feOffset dx="80.0926" dy="3.36984"/>
<feGaussianBlur stdDeviation="105.307"/>
<feComposite in2="hardAlpha" operator="out"/>
<feColorMatrix type="matrix" values="0 0 0 0 0.0705882 0 0 0 0 0.0705882 0 0 0 0 0.0705882 0 0 0 0.25 0"/>
<feBlend mode="normal" in2="BackgroundImageFix" result="effect1_dropShadow_1619_6970"/>
<feBlend mode="normal" in="SourceGraphic" in2="effect1_dropShadow_1619_6970" result="shape"/>
</filter>
<clipPath id="clip0_1619_6970">
<rect width="163" height="89" fill="white" transform="translate(323.328 215)"/>
</clipPath>
<clipPath id="clip1_1619_6970">
<rect width="16" height="9" fill="white" transform="translate(374.828 281)"/>
</clipPath>
<clipPath id="clip2_1619_6970">
<rect width="16" height="9" fill="white" transform="translate(396.828 281)"/>
</clipPath>
<clipPath id="clip3_1619_6970">
<rect width="16" height="9" fill="white" transform="translate(418.828 281)"/>
</clipPath>
<clipPath id="clip4_1619_6970">
<rect width="24" height="24" fill="white" transform="translate(344.328 244)"/>
</clipPath>
<clipPath id="clip5_1619_6970">
<rect width="24" height="24" fill="white" transform="translate(393.328 244)"/>
</clipPath>
<clipPath id="clip6_1619_6970">
<rect width="24" height="24" fill="white" transform="translate(442.328 244)"/>
</clipPath>
<clipPath id="clip7_1619_6970">
<rect width="163" height="89" fill="white" transform="translate(511.328 405.275)"/>
</clipPath>
<clipPath id="clip8_1619_6970">
<rect width="16" height="9" fill="white" transform="translate(562.828 471.275)"/>
</clipPath>
<clipPath id="clip9_1619_6970">
<rect width="16" height="9" fill="white" transform="translate(584.828 471.275)"/>
</clipPath>
<clipPath id="clip10_1619_6970">
<rect width="16" height="9" fill="white" transform="translate(606.828 471.275)"/>
</clipPath>
<clipPath id="clip11_1619_6970">
<rect width="24" height="24" fill="white" transform="translate(532.328 435)"/>
</clipPath>
<clipPath id="clip12_1619_6970">
<rect width="163" height="89" fill="white" transform="translate(322.547 405.275)"/>
</clipPath>
<clipPath id="clip13_1619_6970">
<rect width="16" height="9" fill="white" transform="translate(374.047 471.275)"/>
</clipPath>
<clipPath id="clip14_1619_6970">
<rect width="16" height="9" fill="white" transform="translate(396.047 471.275)"/>
</clipPath>
<clipPath id="clip15_1619_6970">
<rect width="16" height="9" fill="white" transform="translate(418.047 471.275)"/>
</clipPath>
<clipPath id="clip16_1619_6970">
<rect width="24" height="24" fill="white" transform="translate(345.328 435)"/>
</clipPath>
<clipPath id="clip17_1619_6970">
<rect width="24" height="24" fill="white" transform="translate(392.328 435)"/>
</clipPath>
<clipPath id="clip18_1619_6970">
<rect width="24" height="24" fill="white" transform="translate(439.328 435)"/>
</clipPath>
<clipPath id="clip19_1619_6970">
<rect width="163" height="89" fill="white" transform="translate(133.773 405.275)"/>
</clipPath>
<clipPath id="clip20_1619_6970">
<rect width="16" height="9" fill="white" transform="translate(185.273 471.275)"/>
</clipPath>
<clipPath id="clip21_1619_6970">
<rect width="16" height="9" fill="white" transform="translate(207.273 471.275)"/>
</clipPath>
<clipPath id="clip22_1619_6970">
<rect width="16" height="9" fill="white" transform="translate(229.273 471.275)"/>
</clipPath>
<clipPath id="clip23_1619_6970">
<rect width="24" height="24" fill="white" transform="translate(168.328 435)"/>
</clipPath>
<clipPath id="clip24_1619_6970">
<rect width="24" height="24" fill="white" transform="translate(239.328 435)"/>
</clipPath>
</defs>
</svg>
