<svg width="547" height="288" viewBox="0 0 547 288" fill="none" xmlns="http://www.w3.org/2000/svg">
<rect x="189.328" width="168.777" height="97.7253" rx="4.59884" fill="white" fill-opacity="0.75"/>
<circle cx="198.524" cy="3.67893" r="1.60959" fill="#CF352F"/>
<circle cx="202.813" cy="3.67893" r="1.60959" fill="#F7E064"/>
<circle cx="207.11" cy="3.67893" r="1.60959" fill="#38A413"/>
<g clip-path="url(#clip0_1619_6970)">
<rect x="192.328" y="7" width="163" height="89" rx="2.3" fill="white"/>
<rect x="197.328" y="71" width="153" height="22" rx="2" fill="#034AD8"/>
<g clip-path="url(#clip1_1619_6970)">
<rect x="243.828" y="73" width="16" height="2" rx="1" fill="#8BB4ED"/>
<rect x="245.828" y="77" width="12" height="1.09091" rx="0.545455" fill="#8BB4ED"/>
<rect x="245.828" y="79" width="12" height="1" rx="0.5" fill="#8BB4ED"/>
<rect x="245.828" y="81" width="12" height="1" rx="0.5" fill="#8BB4ED"/>
</g>
<g clip-path="url(#clip2_1619_6970)">
<rect x="265.828" y="73" width="16" height="2" rx="1" fill="#8BB4ED"/>
<rect x="267.828" y="77" width="12" height="1.09091" rx="0.545455" fill="#8BB4ED"/>
<rect x="267.828" y="79" width="12" height="1" rx="0.5" fill="#8BB4ED"/>
<rect x="267.828" y="81" width="12" height="1" rx="0.5" fill="#8BB4ED"/>
</g>
<g clip-path="url(#clip3_1619_6970)">
<rect x="287.828" y="73" width="16" height="2" rx="1" fill="#8BB4ED"/>
<rect x="289.828" y="77" width="12" height="1.09091" rx="0.545455" fill="#8BB4ED"/>
<rect x="289.828" y="79" width="12" height="1" rx="0.5" fill="#8BB4ED"/>
<rect x="289.828" y="81" width="12" height="1" rx="0.5" fill="#8BB4ED"/>
</g>
<rect x="267.328" y="90" width="3" height="2" rx="1" fill="#8BB4ED"/>
<rect x="272.328" y="90" width="3" height="2" rx="1" fill="#8BB4ED"/>
<rect x="277.328" y="90" width="3" height="2" rx="1" fill="#8BB4ED"/>
<rect x="197.328" y="10" width="153" height="11" rx="2" fill="#034AD8"/>
<rect x="204.828" y="12.5" width="16" height="6" rx="2" fill="#8BB4ED"/>
<rect x="248.828" y="14.5" width="16" height="2" rx="1" fill="#8BB4ED"/>
<rect x="269.828" y="14.5" width="16" height="2" rx="1" fill="#8BB4ED"/>
<rect x="290.828" y="14.5" width="16" height="2" rx="1" fill="#8BB4ED"/>
<rect x="334.828" y="14.5" width="3" height="2" rx="1" fill="#8BB4ED"/>
<rect x="339.828" y="14.5" width="3" height="2" rx="1" fill="#8BB4ED"/>
<rect x="205.328" y="34" width="39" height="28" rx="2" fill="#EEEEEE"/>
<g clip-path="url(#clip4_1619_6970)">
<path d="M234.328 55V41C234.328 39.9 233.428 39 232.328 39H218.328C217.228 39 216.328 39.9 216.328 41V55C216.328 56.1 217.228 57 218.328 57H232.328C233.428 57 234.328 56.1 234.328 55ZM222.228 49.98L224.328 52.51L227.428 48.52C227.628 48.26 228.028 48.26 228.228 48.53L231.738 53.21C231.988 53.54 231.748 54.01 231.338 54.01H219.348C218.928 54.01 218.698 53.53 218.958 53.2L221.448 50C221.638 49.74 222.018 49.73 222.228 49.98Z" fill="#CFCFCF"/>
</g>
<rect x="254.328" y="34" width="39" height="28" rx="2" fill="#EEEEEE"/>
<g clip-path="url(#clip5_1619_6970)">
<path d="M274.328 43V41C274.328 39.9 273.428 39 272.328 39H266.328C265.228 39 264.328 39.9 264.328 41V55C264.328 56.1 265.228 57 266.328 57H282.328C283.428 57 284.328 56.1 284.328 55V45C284.328 43.9 283.428 43 282.328 43H274.328ZM268.328 55H266.328V53H268.328V55ZM268.328 51H266.328V49H268.328V51ZM268.328 47H266.328V45H268.328V47ZM268.328 43H266.328V41H268.328V43ZM272.328 55H270.328V53H272.328V55ZM272.328 51H270.328V49H272.328V51ZM272.328 47H270.328V45H272.328V47ZM272.328 43H270.328V41H272.328V43ZM281.328 55H274.328V53H276.328V51H274.328V49H276.328V47H274.328V45H281.328C281.878 45 282.328 45.45 282.328 46V54C282.328 54.55 281.878 55 281.328 55ZM280.328 47H278.328V49H280.328V47ZM280.328 51H278.328V53H280.328V51Z" fill="#CFCFCF"/>
</g>
<rect x="303.328" y="34" width="39" height="28" rx="2" fill="#EEEEEE"/>
<g clip-path="url(#clip6_1619_6970)">
<path d="M327.328 47C328.988 47 330.318 45.66 330.318 44C330.318 42.34 328.988 41 327.328 41C325.668 41 324.328 42.34 324.328 44C324.328 45.66 325.668 47 327.328 47ZM319.328 47C320.988 47 322.318 45.66 322.318 44C322.318 42.34 320.988 41 319.328 41C317.668 41 316.328 42.34 316.328 44C316.328 45.66 317.668 47 319.328 47ZM319.328 49C316.998 49 312.328 50.17 312.328 52.5V54C312.328 54.55 312.778 55 313.328 55H325.328C325.878 55 326.328 54.55 326.328 54V52.5C326.328 50.17 321.658 49 319.328 49ZM327.328 49C327.038 49 326.708 49.02 326.358 49.05C326.378 49.06 326.388 49.08 326.398 49.09C327.538 49.92 328.328 51.03 328.328 52.5V54C328.328 54.35 328.258 54.69 328.148 55H333.328C333.878 55 334.328 54.55 334.328 54V52.5C334.328 50.17 329.658 49 327.328 49Z" fill="#CFCFCF"/>
</g>
<rect opacity="0.8" x="205.328" y="29" width="21" height="3" rx="1.5" fill="#CFCFCF"/>
<rect opacity="0.8" x="254.328" y="29" width="21" height="3" rx="1.5" fill="#CFCFCF"/>
<rect opacity="0.8" x="303.328" y="29" width="21" height="3" rx="1.5" fill="#CFCFCF"/>
</g>
<rect width="168.777" height="97.7253" rx="4.59884" transform="matrix(-1 -8.74228e-08 -8.74228e-08 1 546.328 190.275)" fill="white" fill-opacity="0.75"/>
<circle cx="1.60959" cy="1.60959" r="1.60959" transform="matrix(-1 -8.74228e-08 -8.74228e-08 1 394.805 193)" fill="#CF352F"/>
<circle cx="1.60959" cy="1.60959" r="1.60959" transform="matrix(-1 -8.74228e-08 -8.74228e-08 1 390.516 193)" fill="#F7E064"/>
<circle cx="1.60959" cy="1.60959" r="1.60959" transform="matrix(-1 -8.74228e-08 -8.74228e-08 1 386.219 193)" fill="#38A413"/>
<g clip-path="url(#clip7_1619_6970)">
<rect x="380.328" y="197" width="163" height="89" rx="2.3" fill="white"/>
<rect x="385.328" y="261.275" width="153" height="22" rx="2" fill="#034AD8"/>
<g clip-path="url(#clip8_1619_6970)">
<rect x="431.828" y="263.275" width="16" height="2" rx="1" fill="#8BB4ED"/>
<rect x="433.828" y="267.275" width="12" height="1.09091" rx="0.545455" fill="#8BB4ED"/>
<rect x="433.828" y="269.275" width="12" height="1" rx="0.5" fill="#8BB4ED"/>
<rect x="433.828" y="271.275" width="12" height="1" rx="0.5" fill="#8BB4ED"/>
</g>
<g clip-path="url(#clip9_1619_6970)">
<rect x="453.828" y="263.275" width="16" height="2" rx="1" fill="#8BB4ED"/>
<rect x="455.828" y="267.275" width="12" height="1.09091" rx="0.545455" fill="#8BB4ED"/>
<rect x="455.828" y="269.275" width="12" height="1" rx="0.5" fill="#8BB4ED"/>
<rect x="455.828" y="271.275" width="12" height="1" rx="0.5" fill="#8BB4ED"/>
</g>
<g clip-path="url(#clip10_1619_6970)">
<rect x="475.828" y="263.275" width="16" height="2" rx="1" fill="#8BB4ED"/>
<rect x="477.828" y="267.275" width="12" height="1.09091" rx="0.545455" fill="#8BB4ED"/>
<rect x="477.828" y="269.275" width="12" height="1" rx="0.5" fill="#8BB4ED"/>
<rect x="477.828" y="271.275" width="12" height="1" rx="0.5" fill="#8BB4ED"/>
</g>
<rect x="455.328" y="280.275" width="3" height="2" rx="1" fill="#8BB4ED"/>
<rect x="460.328" y="280.275" width="3" height="2" rx="1" fill="#8BB4ED"/>
<rect x="465.328" y="280.275" width="3" height="2" rx="1" fill="#8BB4ED"/>
<rect x="385.328" y="200.275" width="153" height="11" rx="2" fill="#034AD8"/>
<rect x="392.828" y="202.775" width="16" height="6" rx="2" fill="#8BB4ED"/>
<rect x="436.828" y="204.775" width="16" height="2" rx="1" fill="#8BB4ED"/>
<rect x="457.828" y="204.775" width="16" height="2" rx="1" fill="#8BB4ED"/>
<rect x="478.828" y="204.775" width="16" height="2" rx="1" fill="#8BB4ED"/>
<rect x="522.828" y="204.775" width="3" height="2" rx="1" fill="#8BB4ED"/>
<rect x="527.828" y="204.775" width="3" height="2" rx="1" fill="#8BB4ED"/>
<rect opacity="0.8" x="393.328" y="225" width="138" height="28" rx="2" fill="#F4F4F4"/>
<g clip-path="url(#clip11_1619_6970)">
<path d="M413.328 234V232C413.328 230.9 412.428 230 411.328 230H405.328C404.228 230 403.328 230.9 403.328 232V246C403.328 247.1 404.228 248 405.328 248H421.328C422.428 248 423.328 247.1 423.328 246V236C423.328 234.9 422.428 234 421.328 234H413.328ZM407.328 246H405.328V244H407.328V246ZM407.328 242H405.328V240H407.328V242ZM407.328 238H405.328V236H407.328V238ZM407.328 234H405.328V232H407.328V234ZM411.328 246H409.328V244H411.328V246ZM411.328 242H409.328V240H411.328V242ZM411.328 238H409.328V236H411.328V238ZM411.328 234H409.328V232H411.328V234ZM420.328 246H413.328V244H415.328V242H413.328V240H415.328V238H413.328V236H420.328C420.878 236 421.328 236.45 421.328 237V245C421.328 245.55 420.878 246 420.328 246ZM419.328 238H417.328V240H419.328V238ZM419.328 242H417.328V244H419.328V242Z" fill="#CFCFCF"/>
</g>
</g>
<rect width="168.777" height="97.7253" rx="4.59884" transform="matrix(-1 -8.74228e-08 -8.74228e-08 1 357.547 190.275)" fill="white" fill-opacity="0.75"/>
<circle cx="1.60959" cy="1.60959" r="1.60959" transform="matrix(-1 -8.74228e-08 -8.74228e-08 1 205.805 192)" fill="#CF352F"/>
<circle cx="1.60959" cy="1.60959" r="1.60959" transform="matrix(-1 -8.74228e-08 -8.74228e-08 1 201.516 192)" fill="#F7E064"/>
<circle cx="1.60959" cy="1.60959" r="1.60959" transform="matrix(-1 -8.74228e-08 -8.74228e-08 1 197.219 192)" fill="#38A413"/>
<g clip-path="url(#clip12_1619_6970)">
<rect x="191.547" y="197.275" width="163" height="89" rx="2.3" fill="white"/>
<rect x="196.547" y="261.275" width="153" height="22" rx="2" fill="#034AD8"/>
<g clip-path="url(#clip13_1619_6970)">
<rect x="243.047" y="263.275" width="16" height="2" rx="1" fill="#8BB4ED"/>
<rect x="245.047" y="267.275" width="12" height="1.09091" rx="0.545455" fill="#8BB4ED"/>
<rect x="245.047" y="269.275" width="12" height="1" rx="0.5" fill="#8BB4ED"/>
<rect x="245.047" y="271.275" width="12" height="1" rx="0.5" fill="#8BB4ED"/>
</g>
<g clip-path="url(#clip14_1619_6970)">
<rect x="265.047" y="263.275" width="16" height="2" rx="1" fill="#8BB4ED"/>
<rect x="267.047" y="267.275" width="12" height="1.09091" rx="0.545455" fill="#8BB4ED"/>
<rect x="267.047" y="269.275" width="12" height="1" rx="0.5" fill="#8BB4ED"/>
<rect x="267.047" y="271.275" width="12" height="1" rx="0.5" fill="#8BB4ED"/>
</g>
<g clip-path="url(#clip15_1619_6970)">
<rect x="287.047" y="263.275" width="16" height="2" rx="1" fill="#8BB4ED"/>
<rect x="289.047" y="267.275" width="12" height="1.09091" rx="0.545455" fill="#8BB4ED"/>
<rect x="289.047" y="269.275" width="12" height="1" rx="0.5" fill="#8BB4ED"/>
<rect x="289.047" y="271.275" width="12" height="1" rx="0.5" fill="#8BB4ED"/>
</g>
<rect x="266.547" y="280.275" width="3" height="2" rx="1" fill="#8BB4ED"/>
<rect x="271.547" y="280.275" width="3" height="2" rx="1" fill="#8BB4ED"/>
<rect x="276.547" y="280.275" width="3" height="2" rx="1" fill="#8BB4ED"/>
<rect x="196.547" y="200.275" width="153" height="11" rx="2" fill="#034AD8"/>
<rect x="204.047" y="202.775" width="16" height="6" rx="2" fill="#8BB4ED"/>
<rect x="248.047" y="204.775" width="16" height="2" rx="1" fill="#8BB4ED"/>
<rect x="269.047" y="204.775" width="16" height="2" rx="1" fill="#8BB4ED"/>
<rect x="290.047" y="204.775" width="16" height="2" rx="1" fill="#8BB4ED"/>
<rect x="334.047" y="204.775" width="3" height="2" rx="1" fill="#8BB4ED"/>
<rect x="339.047" y="204.775" width="3" height="2" rx="1" fill="#8BB4ED"/>
<rect opacity="0.8" x="206.547" y="219.275" width="21" height="3" rx="1.5" fill="white"/>
<rect opacity="0.8" x="206.547" y="225.275" width="39" height="28" rx="2" fill="#F4F4F4"/>
<rect opacity="0.8" x="253.547" y="225.275" width="39" height="28" rx="2" fill="#F4F4F4"/>
<rect opacity="0.8" x="300.547" y="225.275" width="39" height="28" rx="2" fill="#F4F4F4"/>
<g clip-path="url(#clip16_1619_6970)">
<path d="M226.328 234V232C226.328 230.9 225.428 230 224.328 230H218.328C217.228 230 216.328 230.9 216.328 232V246C216.328 247.1 217.228 248 218.328 248H234.328C235.428 248 236.328 247.1 236.328 246V236C236.328 234.9 235.428 234 234.328 234H226.328ZM220.328 246H218.328V244H220.328V246ZM220.328 242H218.328V240H220.328V242ZM220.328 238H218.328V236H220.328V238ZM220.328 234H218.328V232H220.328V234ZM224.328 246H222.328V244H224.328V246ZM224.328 242H222.328V240H224.328V242ZM224.328 238H222.328V236H224.328V238ZM224.328 234H222.328V232H224.328V234ZM233.328 246H226.328V244H228.328V242H226.328V240H228.328V238H226.328V236H233.328C233.878 236 234.328 236.45 234.328 237V245C234.328 245.55 233.878 246 233.328 246ZM232.328 238H230.328V240H232.328V238ZM232.328 242H230.328V244H232.328V242Z" fill="#CFCFCF"/>
</g>
<g clip-path="url(#clip17_1619_6970)">
<path d="M273.328 234V232C273.328 230.9 272.428 230 271.328 230H265.328C264.228 230 263.328 230.9 263.328 232V246C263.328 247.1 264.228 248 265.328 248H281.328C282.428 248 283.328 247.1 283.328 246V236C283.328 234.9 282.428 234 281.328 234H273.328ZM267.328 246H265.328V244H267.328V246ZM267.328 242H265.328V240H267.328V242ZM267.328 238H265.328V236H267.328V238ZM267.328 234H265.328V232H267.328V234ZM271.328 246H269.328V244H271.328V246ZM271.328 242H269.328V240H271.328V242ZM271.328 238H269.328V236H271.328V238ZM271.328 234H269.328V232H271.328V234ZM280.328 246H273.328V244H275.328V242H273.328V240H275.328V238H273.328V236H280.328C280.878 236 281.328 236.45 281.328 237V245C281.328 245.55 280.878 246 280.328 246ZM279.328 238H277.328V240H279.328V238ZM279.328 242H277.328V244H279.328V242Z" fill="#CFCFCF"/>
</g>
<g clip-path="url(#clip18_1619_6970)">
<path d="M320.328 234V232C320.328 230.9 319.428 230 318.328 230H312.328C311.228 230 310.328 230.9 310.328 232V246C310.328 247.1 311.228 248 312.328 248H328.328C329.428 248 330.328 247.1 330.328 246V236C330.328 234.9 329.428 234 328.328 234H320.328ZM314.328 246H312.328V244H314.328V246ZM314.328 242H312.328V240H314.328V242ZM314.328 238H312.328V236H314.328V238ZM314.328 234H312.328V232H314.328V234ZM318.328 246H316.328V244H318.328V246ZM318.328 242H316.328V240H318.328V242ZM318.328 238H316.328V236H318.328V238ZM318.328 234H316.328V232H318.328V234ZM327.328 246H320.328V244H322.328V242H320.328V240H322.328V238H320.328V236H327.328C327.878 236 328.328 236.45 328.328 237V245C328.328 245.55 327.878 246 327.328 246ZM326.328 238H324.328V240H326.328V238ZM326.328 242H324.328V244H326.328V242Z" fill="#CFCFCF"/>
</g>
</g>
<rect width="168.777" height="97.7253" rx="4.59884" transform="matrix(-1 -8.74228e-08 -8.74228e-08 1 168.773 190.275)" fill="white" fill-opacity="0.75"/>
<circle cx="1.60959" cy="1.60959" r="1.60959" transform="matrix(-1 -8.74228e-08 -8.74228e-08 1 17.8047 192)" fill="#CF352F"/>
<circle cx="1.60959" cy="1.60959" r="1.60959" transform="matrix(-1 -8.74228e-08 -8.74228e-08 1 13.5156 192)" fill="#F7E064"/>
<circle cx="1.60959" cy="1.60959" r="1.60959" transform="matrix(-1 -8.74228e-08 -8.74228e-08 1 9.21875 192)" fill="#38A413"/>
<g clip-path="url(#clip19_1619_6970)">
<rect x="2.77344" y="197.275" width="163" height="89" rx="2.3" fill="white"/>
<rect x="7.77344" y="261.275" width="153" height="22" rx="2" fill="#034AD8"/>
<g clip-path="url(#clip20_1619_6970)">
<rect x="54.2734" y="263.275" width="16" height="2" rx="1" fill="#8BB4ED"/>
<rect x="56.2734" y="267.275" width="12" height="1.09091" rx="0.545455" fill="#8BB4ED"/>
<rect x="56.2734" y="269.275" width="12" height="1" rx="0.5" fill="#8BB4ED"/>
<rect x="56.2734" y="271.275" width="12" height="1" rx="0.5" fill="#8BB4ED"/>
</g>
<g clip-path="url(#clip21_1619_6970)">
<rect x="76.2734" y="263.275" width="16" height="2" rx="1" fill="#8BB4ED"/>
<rect x="78.2734" y="267.275" width="12" height="1.09091" rx="0.545455" fill="#8BB4ED"/>
<rect x="78.2734" y="269.275" width="12" height="1" rx="0.5" fill="#8BB4ED"/>
<rect x="78.2734" y="271.275" width="12" height="1" rx="0.5" fill="#8BB4ED"/>
</g>
<g clip-path="url(#clip22_1619_6970)">
<rect x="98.2734" y="263.275" width="16" height="2" rx="1" fill="#8BB4ED"/>
<rect x="100.273" y="267.275" width="12" height="1.09091" rx="0.545455" fill="#8BB4ED"/>
<rect x="100.273" y="269.275" width="12" height="1" rx="0.5" fill="#8BB4ED"/>
<rect x="100.273" y="271.275" width="12" height="1" rx="0.5" fill="#8BB4ED"/>
</g>
<rect x="77.7734" y="280.275" width="3" height="2" rx="1" fill="#8BB4ED"/>
<rect x="82.7734" y="280.275" width="3" height="2" rx="1" fill="#8BB4ED"/>
<rect x="87.7734" y="280.275" width="3" height="2" rx="1" fill="#8BB4ED"/>
<g clip-path="url(#clip23_1619_6970)">
<path d="M49.3281 234V232C49.3281 230.9 48.4281 230 47.3281 230H41.3281C40.2281 230 39.3281 230.9 39.3281 232V246C39.3281 247.1 40.2281 248 41.3281 248H57.3281C58.4281 248 59.3281 247.1 59.3281 246V236C59.3281 234.9 58.4281 234 57.3281 234H49.3281ZM43.3281 246H41.3281V244H43.3281V246ZM43.3281 242H41.3281V240H43.3281V242ZM43.3281 238H41.3281V236H43.3281V238ZM43.3281 234H41.3281V232H43.3281V234ZM47.3281 246H45.3281V244H47.3281V246ZM47.3281 242H45.3281V240H47.3281V242ZM47.3281 238H45.3281V236H47.3281V238ZM47.3281 234H45.3281V232H47.3281V234ZM56.3281 246H49.3281V244H51.3281V242H49.3281V240H51.3281V238H49.3281V236H56.3281C56.8781 236 57.3281 236.45 57.3281 237V245C57.3281 245.55 56.8781 246 56.3281 246ZM55.3281 238H53.3281V240H55.3281V238ZM55.3281 242H53.3281V244H55.3281V242Z" fill="#757575"/>
</g>
<g clip-path="url(#clip24_1619_6970)">
<path d="M120.328 234V232C120.328 230.9 119.428 230 118.328 230H112.328C111.228 230 110.328 230.9 110.328 232V246C110.328 247.1 111.228 248 112.328 248H128.328C129.428 248 130.328 247.1 130.328 246V236C130.328 234.9 129.428 234 128.328 234H120.328ZM114.328 246H112.328V244H114.328V246ZM114.328 242H112.328V240H114.328V242ZM114.328 238H112.328V236H114.328V238ZM114.328 234H112.328V232H114.328V234ZM118.328 246H116.328V244H118.328V246ZM118.328 242H116.328V240H118.328V242ZM118.328 238H116.328V236H118.328V238ZM118.328 234H116.328V232H118.328V234ZM127.328 246H120.328V244H122.328V242H120.328V240H122.328V238H120.328V236H127.328C127.878 236 128.328 236.45 128.328 237V245C128.328 245.55 127.878 246 127.328 246ZM126.328 238H124.328V240H126.328V238ZM126.328 242H124.328V244H126.328V242Z" fill="#757575"/>
</g>
<rect x="7.77344" y="200.275" width="153" height="11" rx="2" fill="#034AD8"/>
<rect x="15.2734" y="202.775" width="16" height="6" rx="2" fill="#8BB4ED"/>
<rect x="59.2734" y="204.775" width="16" height="2" rx="1" fill="#8BB4ED"/>
<rect x="80.2734" y="204.775" width="16" height="2" rx="1" fill="#8BB4ED"/>
<rect x="101.273" y="204.775" width="16" height="2" rx="1" fill="#8BB4ED"/>
<rect x="145.273" y="204.775" width="3" height="2" rx="1" fill="#8BB4ED"/>
<rect x="150.273" y="204.775" width="3" height="2" rx="1" fill="#8BB4ED"/>
<g opacity="0.8">
<rect x="7.77344" y="213.275" width="153" height="46" rx="2" fill="white"/>
<rect opacity="0.8" x="17.7734" y="219.275" width="21" height="3" rx="1.5" fill="white"/>
<rect opacity="0.8" x="17.7734" y="225.275" width="63" height="28" rx="2" fill="#EEEEEE"/>
<rect opacity="0.8" x="88.7734" y="225.275" width="63" height="28" rx="2" fill="#EEEEEE"/>
</g>
</g>
<path d="M275.211 101.725C275.211 100.897 274.539 100.225 273.711 100.225C272.883 100.225 272.211 100.897 272.211 101.725H275.211ZM272.211 101.725V186.275H275.211V101.725H272.211Z" fill="#8BB4ED"/>
<path d="M275.211 101.725C275.211 100.897 274.539 100.225 273.711 100.225C272.883 100.225 272.211 100.897 272.211 101.725H275.211ZM272.211 101.725V120H275.211V101.725H272.211ZM297.711 145.5H437.934V142.5H297.711V145.5ZM460.434 168V186.275H463.434V168H460.434ZM437.934 145.5C450.36 145.5 460.434 155.574 460.434 168H463.434C463.434 153.917 452.017 142.5 437.934 142.5V145.5ZM272.211 120C272.211 134.083 283.628 145.5 297.711 145.5V142.5C285.285 142.5 275.211 132.426 275.211 120H272.211Z" fill="#8BB4ED"/>
<path d="M275.215 101.725C275.215 100.897 274.543 100.225 273.715 100.225C272.886 100.225 272.215 100.897 272.215 101.725H275.215ZM272.215 101.725V120H275.215V101.725H272.215ZM249.715 142.5H108.383V145.5H249.715V142.5ZM82.8828 168V186.275H85.8828V168H82.8828ZM108.383 142.5C94.2995 142.5 82.8828 153.917 82.8828 168H85.8828C85.8828 155.574 95.9564 145.5 108.383 145.5V142.5ZM272.215 120C272.215 132.426 262.141 142.5 249.715 142.5V145.5C263.798 145.5 275.215 134.083 275.215 120H272.215Z" fill="#8BB4ED"/>
<defs>
<clipPath id="clip0_1619_6970">
<rect width="163" height="89" fill="white" transform="translate(192.328 7)"/>
</clipPath>
<clipPath id="clip1_1619_6970">
<rect width="16" height="9" fill="white" transform="translate(243.828 73)"/>
</clipPath>
<clipPath id="clip2_1619_6970">
<rect width="16" height="9" fill="white" transform="translate(265.828 73)"/>
</clipPath>
<clipPath id="clip3_1619_6970">
<rect width="16" height="9" fill="white" transform="translate(287.828 73)"/>
</clipPath>
<clipPath id="clip4_1619_6970">
<rect width="24" height="24" fill="white" transform="translate(213.328 36)"/>
</clipPath>
<clipPath id="clip5_1619_6970">
<rect width="24" height="24" fill="white" transform="translate(262.328 36)"/>
</clipPath>
<clipPath id="clip6_1619_6970">
<rect width="24" height="24" fill="white" transform="translate(311.328 36)"/>
</clipPath>
<clipPath id="clip7_1619_6970">
<rect width="163" height="89" fill="white" transform="translate(380.328 197.275)"/>
</clipPath>
<clipPath id="clip8_1619_6970">
<rect width="16" height="9" fill="white" transform="translate(431.828 263.275)"/>
</clipPath>
<clipPath id="clip9_1619_6970">
<rect width="16" height="9" fill="white" transform="translate(453.828 263.275)"/>
</clipPath>
<clipPath id="clip10_1619_6970">
<rect width="16" height="9" fill="white" transform="translate(475.828 263.275)"/>
</clipPath>
<clipPath id="clip11_1619_6970">
<rect width="24" height="24" fill="white" transform="translate(401.328 227)"/>
</clipPath>
<clipPath id="clip12_1619_6970">
<rect width="163" height="89" fill="white" transform="translate(191.547 197.275)"/>
</clipPath>
<clipPath id="clip13_1619_6970">
<rect width="16" height="9" fill="white" transform="translate(243.047 263.275)"/>
</clipPath>
<clipPath id="clip14_1619_6970">
<rect width="16" height="9" fill="white" transform="translate(265.047 263.275)"/>
</clipPath>
<clipPath id="clip15_1619_6970">
<rect width="16" height="9" fill="white" transform="translate(287.047 263.275)"/>
</clipPath>
<clipPath id="clip16_1619_6970">
<rect width="24" height="24" fill="white" transform="translate(214.328 227)"/>
</clipPath>
<clipPath id="clip17_1619_6970">
<rect width="24" height="24" fill="white" transform="translate(261.328 227)"/>
</clipPath>
<clipPath id="clip18_1619_6970">
<rect width="24" height="24" fill="white" transform="translate(308.328 227)"/>
</clipPath>
<clipPath id="clip19_1619_6970">
<rect width="163" height="89" fill="white" transform="translate(2.77344 197.275)"/>
</clipPath>
<clipPath id="clip20_1619_6970">
<rect width="16" height="9" fill="white" transform="translate(54.2734 263.275)"/>
</clipPath>
<clipPath id="clip21_1619_6970">
<rect width="16" height="9" fill="white" transform="translate(76.2734 263.275)"/>
</clipPath>
<clipPath id="clip22_1619_6970">
<rect width="16" height="9" fill="white" transform="translate(98.2734 263.275)"/>
</clipPath>
<clipPath id="clip23_1619_6970">
<rect width="24" height="24" fill="white" transform="translate(37.3281 227)"/>
</clipPath>
<clipPath id="clip24_1619_6970">
<rect width="24" height="24" fill="white" transform="translate(108.328 227)"/>
</clipPath>
</defs>
</svg>
