<svg width="39" height="38" viewBox="0 0 39 38" fill="none" xmlns="http://www.w3.org/2000/svg">
    <path fill-rule="evenodd" clip-rule="evenodd" d="M35.5246 19.9436C34.3134 15.0332 34.3927 10.3045 34.2475 5.32373C34.2193 4.35102 34.9857 3.54233 35.9583 3.51303C36.9316 3.48373 37.7438 4.25138 37.7726 5.22408C37.9101 9.94699 37.799 14.4413 38.9486 19.1056C39.1813 20.049 38.6024 21.0042 37.6574 21.2327C36.7129 21.4671 35.7568 20.887 35.5246 19.9436Z" fill="#393939"/>
    <path fill-rule="evenodd" clip-rule="evenodd" d="M25.2339 29.4597C17.0167 21.9711 9.27429 12.3378 3.86273 2.61069C3.39081 1.76104 3.69819 0.688671 4.54918 0.219896C5.40018 -0.248879 6.47448 0.0558507 6.94641 0.905504C12.1793 10.3103 19.6672 19.6272 27.6129 26.8639C28.3311 27.5202 28.3811 28.6335 27.7246 29.3484C27.0681 30.0633 25.9521 30.116 25.2339 29.4597Z" fill="#393939"/>
    <path fill-rule="evenodd" clip-rule="evenodd" d="M23.1523 37.6399C15.6368 38.8763 7.89031 36.7668 1.05651 33.7842C0.164967 33.3916 -0.241735 32.3545 0.147911 31.4697C0.538145 30.579 1.57898 30.1747 2.47052 30.5614C8.69429 33.2803 15.7332 35.2961 22.5781 34.171C23.5385 34.0128 24.4465 34.6632 24.6045 35.6183C24.7632 36.5734 24.112 37.4817 23.1523 37.6399Z" fill="#393939"/>
</svg>